<?xml version="1.0" encoding="UTF-8"?>
<svg width="45px" height="45px" viewBox="0 0 45 45" version="1.1" xmlns="http://www.w3.org/2000/svg" xmlns:xlink="http://www.w3.org/1999/xlink">
    <!-- Generator: Sketch 53.2 (72643) - https://sketchapp.com -->
    <title>Group 10</title>
    <desc>Created with Sketch.</desc>
    <g id="Page-1" stroke="none" stroke-width="1" fill="none" fill-rule="evenodd">
        <g id="Landing-page" transform="translate(-972.000000, -2074.000000)" fill="#0491FF">
            <g id="Group-25" transform="translate(190.000000, 2074.000000)">
                <g id="Group-13" transform="translate(782.000000, 0.000000)">
                    <g id="Group-12">
                        <g id="Group-10">
                            <rect id="Rectangle" opacity="0.15" x="0" y="0" width="45" height="45" rx="5"></rect>
                            <g id="value" transform="translate(9.692308, 8.307692)" fill-rule="nonzero">
                                <path d="M14.1923077,0 L3.50368266,0 C2.56772143,0 1.68784858,0.364466168 1.02626567,1.02626567 C0.364466168,1.68784858 0,2.56772143 0,3.50368266 L0,24.8809327 C0,25.816894 0.364466168,26.6967668 1.02626567,27.3583497 C1.68784858,28.0201492 2.56772143,28.3846154 3.50368266,28.3846154 L14.1923077,28.3846154 C15.1282689,28.3846154 16.0081417,28.0201492 16.6697247,27.3583497 C17.3315242,26.6965502 17.6959904,25.8166774 17.6959904,24.8809327 L17.6959904,3.50368266 C17.6959904,2.56772143 17.3315242,1.68784858 16.6697247,1.02626567 C16.0081417,0.364466168 15.1282689,1.57566268e-15 14.1923077,0 Z M16.0328293,24.8809327 C16.0328293,25.3725181 15.8413925,25.8346516 15.4936013,26.1824429 C15.1460266,26.5300176 14.6838931,26.7214543 14.1923077,26.7214543 L3.50368266,26.7214543 C3.01209727,26.7214543 2.54996374,26.5300176 2.20217249,26.1822264 C1.85459783,25.8346516 1.66316106,25.3725181 1.66316106,24.8809327 L1.66316106,3.50368266 C1.66316106,3.01209727 1.85459783,2.54996374 2.20238903,2.20217249 C2.54996374,1.85459783 3.01209727,1.66316106 3.50368266,1.66316106 L14.1923077,1.66316106 C14.6838931,1.66316106 15.1460266,1.85459783 15.4938178,2.20238903 C15.8413925,2.54996374 16.0328293,3.01209727 16.0328293,3.50368266 L16.0328293,24.8809327 Z" id="Shape"></path>
                                <path d="M13.301607,3.56280283 L4.39438336,3.56280283 C3.93528161,3.56280283 3.56280283,3.93528161 3.56280283,4.39438336 C3.56280283,4.85370165 3.93528161,5.22596389 4.39438336,5.22596389 L13.301607,5.22596389 C13.7609253,5.22596389 14.1331875,4.85370165 14.1331875,4.39438336 C14.1331875,3.93528161 13.7609253,3.56280283 13.301607,3.56280283 Z" id="Path"></path>
                                <path d="M13.301607,23.1586515 L4.39438336,23.1586515 C3.93528161,23.1586515 3.56280283,23.5309137 3.56280283,23.990232 C3.56280283,24.4495503 3.93528161,24.8218126 4.39438336,24.8218126 L13.301607,24.8218126 C13.7609253,24.8218126 14.1331875,24.4495503 14.1331875,23.990232 C14.1331875,23.5309137 13.7609253,23.1586515 13.301607,23.1586515 Z" id="Path"></path>
                                <path d="M8.84810342,8.90722364 C5.93389011,8.90722364 3.56280283,11.2780944 3.56280283,14.1923077 C3.56280283,17.106521 5.93389011,19.4773917 8.84810342,19.4773917 C11.7623168,19.4773917 14.1331875,17.106521 14.1331875,14.1923077 C14.1331875,11.2780944 11.7623168,8.90722364 8.84810342,8.90722364 Z M8.84810342,17.8142307 C6.85079429,17.8142307 5.22596389,16.1894003 5.22596389,14.1923077 C5.22596389,12.1952151 6.85079429,10.5703847 8.84810342,10.5703847 C10.8451961,10.5703847 12.4700265,12.1952151 12.4700265,14.1923077 C12.4700265,16.1894003 10.8451961,17.8142307 8.84810342,17.8142307 Z" id="Shape"></path>
                                <path d="M28.1409883,3.80642992 L24.5781855,0.243627094 C24.2535659,-0.0812090499 23.7268982,-0.0812090499 23.4022786,0.243627094 L19.8392592,3.80642992 C19.5146396,4.13104952 19.5146396,4.65771719 19.8392592,4.98255334 C20.1640954,5.30717294 20.6905465,5.30717294 21.0153826,4.98255334 L23.1586515,2.83928447 L23.1586515,15.0830084 C23.1586515,15.5423267 23.5309137,15.9145889 23.990232,15.9145889 C24.4493338,15.9145889 24.8218126,15.5423267 24.8218126,15.0830084 L24.8218126,2.83928447 L26.9650814,4.98255334 C27.1272829,5.14475484 27.3401589,5.22596389 27.5530349,5.22596389 C27.7656943,5.22596389 27.9785702,5.14475484 28.1409883,4.98255334 C28.4658244,4.65771719 28.4658244,4.13126607 28.1409883,3.80642992 L28.1409883,3.80642992 Z" id="Path"></path>
                                <path d="M23.990232,18.705148 C23.5309137,18.705148 23.1586515,19.0774102 23.1586515,19.5367285 L23.1586515,21.3181299 C23.1586515,21.7772316 23.5309137,22.1497104 23.990232,22.1497104 C24.4493338,22.1497104 24.8218126,21.7772316 24.8218126,21.3181299 L24.8218126,19.5367285 C24.8218126,19.0774102 24.4495503,18.705148 23.990232,18.705148 Z" id="Path"></path>
                                <path d="M23.990232,24.9400529 C23.5309137,24.9400529 23.1586515,25.3123151 23.1586515,25.7716335 L23.1586515,27.5530349 C23.1586515,28.0123531 23.5309137,28.3846154 23.990232,28.3846154 C24.4493338,28.3846154 24.8218126,28.0123531 24.8218126,27.5530349 L24.8218126,25.7716335 C24.8218126,25.3123151 24.4495503,24.9400529 23.990232,24.9400529 Z" id="Path"></path>
                            </g>
                        </g>
                    </g>
                </g>
            </g>
        </g>
    </g>
</svg>