<?xml version="1.0" encoding="UTF-8"?>
<svg width="45px" height="45px" viewBox="0 0 45 45" version="1.1" xmlns="http://www.w3.org/2000/svg" xmlns:xlink="http://www.w3.org/1999/xlink">
    <!-- Generator: Sketch 53.2 (72643) - https://sketchapp.com -->
    <title>Group 41</title>
    <desc>Created with Sketch.</desc>
    <g id="Page-1" stroke="none" stroke-width="1" fill="none" fill-rule="evenodd">
        <g id="Landing-page" transform="translate(-1324.000000, -2074.000000)" fill="#FFCD40">
            <g id="Group-25" transform="translate(190.000000, 2074.000000)">
                <g id="Group-13" transform="translate(782.000000, 0.000000)">
                    <g id="Group-12" transform="translate(352.000000, 0.000000)">
                        <g id="Group-41">
                            <rect id="Rectangle" opacity="0.276953125" x="0" y="0" width="45" height="45" rx="5"></rect>
                            <g id="diamond" transform="translate(4.846154, 4.846154)" fill-rule="nonzero">
                                <path d="M30.7961778,14.8517938 L24.5916332,8.64724906 C24.3979516,8.4538369 24.1280365,8.34420072 23.8602764,8.34420072 L11.4474159,8.34420072 C11.4452609,8.34420072 11.4431058,8.34447008 11.4406815,8.34447008 C11.1739989,8.34608637 10.9067776,8.45679999 10.7160592,8.64724906 L4.50962887,14.85341 C4.10610318,15.2569357 4.10798876,15.915022 4.50962887,16.3166621 L16.9224894,28.7295227 C16.9230282,28.7300615 16.9235669,28.7306002 16.9243751,28.7311389 C17.3262846,29.1314322 17.9800609,29.132779 18.3833172,28.7311389 C18.3841254,28.7306002 18.3846641,28.7300615 18.3852029,28.7295227 L30.7961778,16.3182784 C31.2010504,15.9155608 31.2018586,15.2550501 30.7961778,14.8517938 Z M10.9954024,11.293602 L12.080989,14.550631 L7.73837341,14.550631 L10.9954024,11.293602 Z M20.3562293,16.6194411 L17.6538462,24.72686 L14.951463,16.6194411 L20.3562293,16.6194411 Z M15.449001,14.550631 L17.6538462,11.243498 L19.8586913,14.550631 L15.449001,14.550631 Z M19.5866212,10.4130108 L22.4250394,10.4130108 L21.4789898,13.251429 L19.5866212,10.4130108 Z M13.8287025,13.251429 L12.8826529,10.4130108 L15.7210711,10.4130108 L13.8287025,13.251429 Z M12.7705923,16.6194411 L15.2868365,24.1679042 L7.73837341,16.6194411 L12.7705923,16.6194411 Z M22.5371,16.6194411 L27.5693189,16.6194411 L20.0208558,24.1679042 L22.5371,16.6194411 Z M23.2267034,14.550631 L24.3122899,11.293602 L27.5693189,14.550631 L23.2267034,14.550631 Z" id="Shape"></path>
                                <path d="M18.6882512,3.17217548 L18.6882512,1.03440505 C18.6882512,0.463057902 18.2251933,0 17.6538462,0 C17.082499,0 16.6194411,0.463057902 16.6194411,1.03440505 L16.6194411,3.17217548 C16.6194411,3.74352263 17.082499,4.20658053 17.6538462,4.20658053 C18.2251933,4.20658053 18.6882512,3.74352263 18.6882512,3.17217548 Z" id="Path"></path>
                                <path d="M17.6538462,31.1011118 C17.082499,31.1011118 16.6194411,31.5641697 16.6194411,32.1355168 L16.6194411,34.2732873 C16.6194411,34.8446344 17.082499,35.3076923 17.6538462,35.3076923 C18.2251933,35.3076923 18.6882512,34.8446344 18.6882512,34.2732873 L18.6882512,32.1355168 C18.6882512,31.5641697 18.2251933,31.1011118 17.6538462,31.1011118 Z" id="Path"></path>
                                <path d="M8.14513161,8.14513161 C8.54919608,7.74133649 8.54919608,7.0862133 8.14513161,6.68241825 L6.68241825,5.21943547 C6.27835378,4.815371 5.62349994,4.815371 5.21943547,5.21943547 C4.815371,5.62349994 4.815371,6.27835378 5.21943547,6.68241825 L6.68241825,8.14513161 C7.0862133,8.54919608 7.74133649,8.54919608 8.14513161,8.14513161 Z" id="Path"></path>
                                <path d="M28.6255434,27.1625607 C28.221479,26.7584962 27.5666252,26.7584962 27.1625607,27.1625607 C26.7584962,27.5663558 26.7584962,28.221479 27.1625607,28.6252741 L28.6255434,30.0882568 C29.0293385,30.4920519 29.6841924,30.4923213 30.0882568,30.0882568 C30.4923213,29.6841924 30.4923213,29.0293385 30.0882568,28.6252741 L28.6255434,27.1625607 Z" id="Path"></path>
                                <path d="M3.17217548,18.6882512 L1.03440505,18.6882512 C0.463057902,18.6882512 0,19.1513091 0,19.7226562 C0,20.2940034 0.463057902,20.7570613 1.03440505,20.7570613 L3.17217548,20.7570613 C3.74352263,20.7570613 4.20658053,20.2940034 4.20658053,19.7226562 C4.20658053,19.1513091 3.74352263,18.6882512 3.17217548,18.6882512 Z" id="Path"></path>
                                <path d="M34.2732873,18.6882512 L32.1355168,18.6882512 C31.5641697,18.6882512 31.1011118,19.1513091 31.1011118,19.7226562 C31.1011118,20.2940034 31.5641697,20.7570613 32.1355168,20.7570613 L34.2732873,20.7570613 C34.8446344,20.7570613 35.3076923,20.2940034 35.3076923,19.7226562 C35.3076923,19.1513091 34.8446344,18.6882512 34.2732873,18.6882512 Z" id="Path"></path>
                                <path d="M6.68241825,27.1625607 L5.21943547,28.6252741 C4.815371,29.0293385 4.815371,29.6841924 5.21943547,30.0882568 C5.62349994,30.4923213 6.27835378,30.4923213 6.68241825,30.0882568 L8.14513161,28.6252741 C8.54919608,28.221479 8.54919608,27.5663558 8.14513161,27.1625607 C7.74133649,26.7584962 7.0862133,26.7584962 6.68241825,27.1625607 Z" id="Path"></path>
                                <path d="M28.6255434,8.14513161 L30.0882568,6.68241825 C30.4923213,6.27835378 30.4923213,5.62349994 30.0882568,5.21943547 C29.6844617,4.81564036 29.0293385,4.815371 28.6255434,5.21943547 L27.1625607,6.68241825 C26.7587656,7.0862133 26.7587656,7.74133649 27.1625607,8.14513161 C27.5663558,8.54919608 28.221479,8.54919608 28.6255434,8.14513161 Z" id="Path"></path>
                            </g>
                        </g>
                    </g>
                </g>
            </g>
        </g>
    </g>
</svg>