<?xml version="1.0" encoding="UTF-8"?>
<svg width="45px" height="45px" viewBox="0 0 45 45" version="1.1" xmlns="http://www.w3.org/2000/svg" xmlns:xlink="http://www.w3.org/1999/xlink">
    <!-- Generator: Sketch 53.2 (72643) - https://sketchapp.com -->
    <title>Group 24</title>
    <desc>Created with Sketch.</desc>
    <g id="Page-1" stroke="none" stroke-width="1" fill="none" fill-rule="evenodd">
        <g id="Landing-page" transform="translate(-972.000000, -2413.000000)" fill="#FA6400">
            <g id="Group-25" transform="translate(190.000000, 2074.000000)">
                <g id="Group-13" transform="translate(782.000000, 0.000000)">
                    <g id="Group-12" transform="translate(0.000000, 339.000000)">
                        <g id="Group-24">
                            <rect id="Rectangle" opacity="0.15" x="0" y="0" width="45" height="45" rx="5"></rect>
                            <g id="emoji" transform="translate(7.615385, 7.615385)" fill-rule="nonzero">
                                <path d="M25.987242,4.45778612 C23.2465291,1.68405253 19.4161351,0 15.2225141,0 C11.0288931,0 7.19849906,1.71707317 4.45778612,4.45778612 C1.68405253,7.19849906 0,11.0288931 0,15.2225141 C0,19.4161351 1.71707317,23.2465291 4.45778612,25.987242 C7.19849906,28.727955 11.0288931,30.4450281 15.2225141,30.4450281 C19.4161351,30.4450281 23.2465291,28.727955 25.987242,25.987242 C28.727955,23.2465291 30.4450281,19.4161351 30.4450281,15.2225141 C30.4450281,11.0288931 28.7609756,7.19849906 25.987242,4.45778612 Z M24.7984991,24.7984991 C22.3549719,27.2420263 18.9538462,28.7609756 15.2225141,28.7609756 C11.491182,28.7609756 8.09005629,27.2420263 5.64652908,24.7984991 C3.20300188,22.3549719 1.68405253,18.9538462 1.68405253,15.2225141 C1.68405253,11.491182 3.20300188,8.09005629 5.64652908,5.64652908 C8.09005629,3.20300188 11.491182,1.68405253 15.2225141,1.68405253 C18.9538462,1.68405253 22.3549719,3.20300188 24.7984991,5.64652908 C27.2420263,8.09005629 28.7609756,11.491182 28.7609756,15.2225141 C28.7609756,18.9538462 27.2750469,22.3549719 24.7984991,24.7984991 Z" id="Shape"></path>
                                <path d="M12.8120075,7.09943715 C12.2836773,6.57110694 11.5572233,6.24090056 10.764728,6.24090056 C9.97223265,6.24090056 9.24577861,6.57110694 8.71744841,7.09943715 C8.1891182,7.62776735 7.85891182,8.35422139 7.85891182,9.1467167 C7.85891182,9.93921201 8.1891182,10.665666 8.71744841,11.1939962 C9.24577861,11.7223265 9.97223265,12.0525328 10.764728,12.0525328 C11.5572233,12.0525328 12.2836773,11.7223265 12.8120075,11.1939962 C13.3403377,10.665666 13.6705441,9.93921201 13.6705441,9.1467167 C13.6705441,8.35422139 13.3403377,7.62776735 12.8120075,7.09943715 Z M11.6232645,9.97223265 C11.3921201,10.2033771 11.0949343,10.3354597 10.764728,10.3354597 C10.4345216,10.3354597 10.1043152,10.2033771 9.90619137,9.97223265 C9.6750469,9.74108818 9.54296435,9.44390244 9.54296435,9.11369606 C9.54296435,8.78348968 9.6750469,8.48630394 9.90619137,8.25515947 C10.1373358,8.02401501 10.4345216,7.89193246 10.764728,7.89193246 C11.0949343,7.89193246 11.4251407,8.02401501 11.6232645,8.25515947 C11.854409,8.48630394 11.9864916,8.78348968 11.9864916,9.11369606 C11.9864916,9.44390244 11.854409,9.77410882 11.6232645,9.97223265 Z" id="Shape"></path>
                                <path d="M21.7275797,7.09943715 C21.1992495,6.57110694 20.4727955,6.24090056 19.6803002,6.24090056 C18.8878049,6.24090056 18.1613508,6.57110694 17.6330206,7.09943715 C17.1046904,7.62776735 16.7744841,8.35422139 16.7744841,9.1467167 C16.7744841,9.93921201 17.1046904,10.665666 17.6330206,11.1939962 C18.1283302,11.7223265 18.8547842,12.0525328 19.6803002,12.0525328 C20.4727955,12.0525328 21.1992495,11.7223265 21.7275797,11.1939962 C22.2559099,10.665666 22.5861163,9.93921201 22.5861163,9.1467167 C22.5861163,8.35422139 22.2559099,7.62776735 21.7275797,7.09943715 Z M20.5058161,9.97223265 C20.2746717,10.2033771 19.9774859,10.3354597 19.6472795,10.3354597 C19.3170732,10.3354597 18.9868668,10.2033771 18.788743,9.97223265 C18.5575985,9.74108818 18.4255159,9.44390244 18.4255159,9.11369606 C18.4255159,8.78348968 18.5575985,8.48630394 18.788743,8.25515947 C19.0198874,8.02401501 19.3170732,7.89193246 19.6472795,7.89193246 C19.9774859,7.89193246 20.3076923,8.02401501 20.5058161,8.25515947 C20.7369606,8.48630394 20.8690432,8.78348968 20.8690432,9.11369606 C20.8690432,9.44390244 20.7369606,9.77410882 20.5058161,9.97223265 Z" id="Shape"></path>
                                <path d="M24.2041276,14.4300188 L15.2225141,14.3969981 L6.24090056,14.3969981 C5.77861163,14.3969981 5.41538462,14.7602251 5.41538462,15.2225141 C5.41538462,17.9302064 6.50506567,20.4067542 8.28818011,22.156848 C10.0712946,23.9399625 12.5148218,25.0296435 15.2225141,25.0296435 C17.9302064,25.0296435 20.3737336,23.9399625 22.156848,22.156848 C23.9399625,20.3737336 25.0296435,17.9302064 25.0296435,15.2225141 C25.0296435,14.7932458 24.6664165,14.4300188 24.2041276,14.4300188 Z M20.9681051,21.0011257 C19.515197,22.4540338 17.4679174,23.3786116 15.2225141,23.3786116 C12.9771107,23.3786116 10.9298311,22.4540338 9.44390244,21.0011257 C8.15609756,19.7133208 7.29756098,17.9962477 7.09943715,16.0810507 L15.2225141,16.0810507 L23.345591,16.1140713 C23.1144465,17.9962477 22.2559099,19.7133208 20.9681051,21.0011257 Z" id="Shape"></path>
                            </g>
                        </g>
                    </g>
                </g>
            </g>
        </g>
    </g>
</svg>