<?xml version="1.0" encoding="UTF-8"?>
<svg width="45px" height="45px" viewBox="0 0 45 45" version="1.1" xmlns="http://www.w3.org/2000/svg" xmlns:xlink="http://www.w3.org/1999/xlink">
    <!-- Generator: Sketch 53.2 (72643) - https://sketchapp.com -->
    <title>Group 29</title>
    <desc>Created with Sketch.</desc>
    <g id="Page-1" stroke="none" stroke-width="1" fill="none" fill-rule="evenodd">
        <g id="Landing-page" transform="translate(-1324.000000, -2413.000000)" fill="#BE22E4">
            <g id="Group-25" transform="translate(190.000000, 2074.000000)">
                <g id="Group-13" transform="translate(782.000000, 0.000000)">
                    <g id="Group-12" transform="translate(352.000000, 339.000000)">
                        <g id="Group-29">
                            <rect id="Rectangle" fill-opacity="0.15" x="0" y="0" width="45" height="45" rx="5"></rect>
                            <g id="shield" transform="translate(9.000000, 6.923077)" fill-rule="nonzero">
                                <path d="M27.6598061,8.68586582 L27.6588137,8.66113148 C27.6446718,8.35583246 27.6352439,8.03283151 27.6295376,7.67345648 C27.6029905,5.92095773 26.1776365,4.4713331 24.3843452,4.37336582 C20.6454272,4.16942895 17.7530379,2.97781714 15.28168,0.623450167 L15.2605912,0.603808167 C14.4545034,-0.118579185 13.2385487,-0.118579185 12.4322126,0.603808167 L12.4111239,0.623450167 C9.93976603,2.97781714 7.0473767,4.16942895 3.30845869,4.3736083 C1.51541549,4.4713331 0.0898133945,5.92095773 0.0632663797,7.67369896 C0.0578080734,8.03064902 0.0481320254,8.35365004 0.0339901482,8.66113148 L0.0325015596,8.71860236 C-0.040192717,12.4449962 -0.130502414,17.0826797 1.45686309,21.29212 C2.32969084,23.6069606 3.65158569,25.6191696 5.38558025,27.2732161 C7.36048321,29.1569037 9.9472091,30.6523595 13.073808,31.7178749 C13.1755304,31.7525515 13.2812224,31.7806806 13.3888993,31.8017776 C13.5407386,31.8313618 13.6935702,31.8461538 13.8464019,31.8461538 C13.9992336,31.8461538 14.1523134,31.8313618 14.3039046,31.8017776 C14.4115815,31.7806806 14.5180178,31.7523089 14.6202364,31.7173899 C17.7431138,30.6499346 20.3271105,29.1537512 22.3002768,27.2703061 C24.033527,25.6157747 25.3554219,23.6030807 26.2289939,21.2877552 C27.8223139,17.0657051 27.7322523,12.4192919 27.6598061,8.68586582 Z M24.4386799,20.6424806 C22.7644782,25.0791372 19.3468541,28.1260649 13.99055,29.9568889 C13.971446,29.9631938 13.9511016,29.9687711 13.9300128,29.9728935 C13.8746858,29.9835632 13.8183663,29.9835632 13.7622949,29.9726509 C13.7414542,29.9685286 13.7211097,29.9631938 13.7022539,29.9568889 C8.34024347,28.1294598 4.92038638,25.0842295 3.24742522,20.6473304 C1.78435956,16.7671959 1.86722613,12.5099844 1.94041658,8.75424889 L1.94091282,8.7333945 C1.95579902,8.41063596 1.96572315,8.07260034 1.9711814,7.70110074 C1.98309036,6.92293985 2.61724262,6.27912031 3.41489502,6.235714 C5.53072071,6.12028721 7.38951129,5.72065833 9.09745501,5.01403296 C10.8031658,4.30837763 12.3180851,3.31367028 13.7283047,1.97316758 C13.8000066,1.91399923 13.8930454,1.91375675 13.9644991,1.97316758 C15.3749669,3.31367028 16.8898862,4.30837763 18.5953489,5.01403296 C20.3032926,5.72065833 22.1620832,6.12028721 24.278157,6.235714 C25.0758094,6.27912031 25.7099616,6.92293985 25.7216225,7.70134322 C25.7273289,8.07478283 25.737253,8.41281839 25.7521392,8.7333945 C25.8250816,12.4934948 25.9059633,16.7541013 24.4386799,20.6424806 Z" id="Shape"></path>
                                <path d="M13.8459058,8.03355894 C9.37706754,8.03355894 5.74160862,11.5870551 5.74160862,15.954601 C5.74160862,20.3223895 9.37706754,23.8758856 13.8459058,23.8758856 C18.3144958,23.8758856 21.9502029,20.3223895 21.9502029,15.954601 C21.9502029,11.5870551 18.3144958,8.03355894 13.8459058,8.03355894 Z M13.8459058,22.0106275 C10.429274,22.0106275 7.64977173,19.2939756 7.64977173,15.954601 C7.64977173,12.6152265 10.429274,9.89857456 13.8459058,9.89857456 C17.2622894,9.89857456 20.0417916,12.6152265 20.0417916,15.954601 C20.0417916,19.2939756 17.2622894,22.0106275 13.8459058,22.0106275 Z" id="Shape"></path>
                                <path d="M16.1751004,13.495477 L12.4108758,17.1745846 L11.389186,16.1759974 C11.0165347,15.8117725 10.412403,15.8117725 10.0397516,16.1759974 C9.66734848,16.5402222 9.66734848,17.1306933 10.0397516,17.4946757 L11.7362826,19.1528446 C11.9226083,19.334957 12.166742,19.4258919 12.4108758,19.4258919 C12.6550095,19.4258919 12.8991432,19.334957 13.0854689,19.1528446 L17.5245346,14.8141553 C17.8969379,14.4499304 17.8969379,13.8594593 17.5245346,13.495477 C17.1518834,13.1310096 16.5477516,13.1310096 16.1751004,13.495477 Z" id="Path"></path>
                            </g>
                        </g>
                    </g>
                </g>
            </g>
        </g>
    </g>
</svg>