<?xml version="1.0" encoding="UTF-8"?>
<svg width="45px" height="45px" viewBox="0 0 45 45" version="1.1" xmlns="http://www.w3.org/2000/svg" xmlns:xlink="http://www.w3.org/1999/xlink">
    <!-- Generator: Sketch 53.2 (72643) - https://sketchapp.com -->
    <title>Group 57</title>
    <desc>Created with Sketch.</desc>
    <g id="Page-1" stroke="none" stroke-width="1" fill="none" fill-rule="evenodd">
        <g id="Landing-page" transform="translate(-383.000000, -3864.000000)">
            <g id="Group-62" transform="translate(333.000000, 3759.000000)">
                <g id="Group-57" transform="translate(50.000000, 105.000000)">
                    <rect id="Rectangle" fill="#F7B500" x="0" y="0" width="45" height="45" rx="5"></rect>
                    <g id="idea" transform="translate(15.000000, 9.782609)" fill="#FFFFFF" fill-rule="nonzero">
                        <path d="M11.5429214,0 L3.45707865,0 C1.55094703,0 0,1.56250663 0,3.48284514 L0,21.9519375 C0,23.87247 1.55094703,25.4347826 3.45707865,25.4347826 L11.5429214,25.4347826 C13.4492456,25.4347826 15,23.87247 15,21.9519375 L15,3.48284514 C15,1.56250663 13.4492456,0 11.5429214,0 Z M3.45707865,23.9037124 C2.38882822,23.9037124 1.51974315,23.0281498 1.51974315,21.9519375 L1.51974315,21.4326543 L13.4802568,21.4326543 L13.4802568,21.9519375 C13.4802568,23.0281498 12.6111717,23.9037124 11.5429214,23.9037124 L3.45707865,23.9037124 Z M11.5429214,1.53107019 C12.6111717,1.53107019 13.4802568,2.40663277 13.4802568,3.48284514 L13.4802568,4.00212827 L1.51974315,4.00212827 L1.51974315,3.48284514 C1.51974315,2.40663277 2.38882822,1.53107019 3.45707865,1.53107019 L11.5429214,1.53107019 Z M13.4802568,5.53319846 L13.4802568,19.9015842 L1.51974315,19.9015842 L1.51974315,5.53319846 L13.4802568,5.53319846 Z" id="Shape"></path>
                        <path d="M4.88454493,13.9405908 L4.88454493,15.6827937 C4.88454493,17.05287 5.98464934,18.1677019 7.33705199,18.1677019 C8.68945463,18.1677019 9.78955904,17.0530635 9.78955904,15.6827937 L9.78955904,13.9405908 C10.6085257,13.2228489 11.0869565,12.1759403 11.0869565,11.0665268 C11.0869565,8.97154853 9.40471353,7.26708075 7.33705199,7.26708075 C5.26919952,7.26708075 3.58695652,8.97154853 3.58695652,11.0665268 C3.58695652,12.1761338 4.06557831,13.2228489 4.88454493,13.9405908 L4.88454493,13.9405908 Z M7.33705199,8.79370957 C8.57390549,8.79370957 9.58023362,9.81333272 9.58023362,11.0665268 C9.58023362,11.8138763 9.21697,12.513815 8.60828375,12.9391579 C8.40449708,13.0815839 8.28264522,13.3165094 8.28264522,13.5674966 L8.28264522,14.0907573 L6.39126778,14.0907573 L6.39126778,13.5674966 C6.39126778,13.3165094 6.26960694,13.0815839 6.06562925,12.9391579 C5.45713402,12.5140085 5.09387035,11.8138763 5.09387035,11.0665268 C5.09387035,9.81333272 6.10000751,8.79370957 7.33705199,8.79370957 L7.33705199,8.79370957 Z M8.28264522,15.6827937 C8.28264522,16.2110858 7.85845566,16.6410731 7.33705199,16.6410731 C6.81564836,16.6410731 6.39126778,16.2110858 6.39126778,15.6827937 L6.39126778,15.6173861 L8.28283619,15.6173861 L8.28283619,15.6827937 L8.28264522,15.6827937 Z" id="Shape"></path>
                    </g>
                </g>
            </g>
        </g>
    </g>
</svg>