<?xml version="1.0" encoding="UTF-8"?>
<svg width="45px" height="45px" viewBox="0 0 45 45" version="1.1" xmlns="http://www.w3.org/2000/svg" xmlns:xlink="http://www.w3.org/1999/xlink">
    <!-- Generator: Sketch 53.2 (72643) - https://sketchapp.com -->
    <title>Group 58</title>
    <desc>Created with Sketch.</desc>
    <g id="Page-1" stroke="none" stroke-width="1" fill="none" fill-rule="evenodd">
        <g id="Landing-page" transform="translate(-815.000000, -3864.000000)">
            <g id="Group-61" transform="translate(765.000000, 3759.000000)">
                <g id="Group-58" transform="translate(50.000000, 105.000000)">
                    <rect id="Rectangle" fill="#FF6E67" x="0" y="0" width="45" height="45" rx="5"></rect>
                    <g id="calendar" transform="translate(9.782609, 9.782609)" fill="#FFFFFF" fill-rule="nonzero">
                        <circle id="Oval" cx="19.1754416" cy="10.4322351" r="1"></circle>
                        <path d="M21.4605978,1.98709239 L20.1689878,1.98709239 L20.1689878,0.993546196 C20.1689878,0.444810632 19.7241771,0 19.1754416,0 C18.626706,0 18.1818954,0.444810632 18.1818954,0.993546196 L18.1818954,1.98709239 L13.6612602,1.98709239 L13.6612602,0.993546196 C13.6612602,0.444810632 13.2164496,0 12.667714,0 C12.1189784,0 11.6741678,0.444810632 11.6741678,0.993546196 L11.6741678,1.98709239 L7.20320992,1.98709239 L7.20320992,0.993546196 C7.20320992,0.444810632 6.75839929,0 6.20966372,0 C5.66092816,0 5.21611753,0.444810632 5.21611753,0.993546196 L5.21611753,1.98709239 L3.97418478,1.98709239 C1.78281929,1.98709239 0,3.76991168 0,5.96127717 L0,21.4605978 C0,23.6519633 1.78281929,25.4347826 3.97418478,25.4347826 L11.5748132,25.4347826 C12.1235487,25.4347826 12.5683594,24.989972 12.5683594,24.4412364 C12.5683594,23.8925008 12.1235487,23.4476902 11.5748132,23.4476902 L3.97418478,23.4476902 C2.87850204,23.4476902 1.98709239,22.5562806 1.98709239,21.4605978 L1.98709239,5.96127717 C1.98709239,4.86559443 2.87850204,3.97418478 3.97418478,3.97418478 L5.21611753,3.97418478 L5.21611753,4.96773098 C5.21611753,5.51646654 5.66092816,5.96127717 6.20966372,5.96127717 C6.75839929,5.96127717 7.20320992,5.51646654 7.20320992,4.96773098 L7.20320992,3.97418478 L11.6741678,3.97418478 L11.6741678,4.96773098 C11.6741678,5.51646654 12.1189784,5.96127717 12.667714,5.96127717 C13.2164496,5.96127717 13.6612602,5.51646654 13.6612602,4.96773098 L13.6612602,3.97418478 L18.1818954,3.97418478 L18.1818954,4.96773098 C18.1818954,5.51646654 18.626706,5.96127717 19.1754416,5.96127717 C19.7241771,5.96127717 20.1689878,5.51646654 20.1689878,4.96773098 L20.1689878,3.97418478 L21.4605978,3.97418478 C22.5562806,3.97418478 23.4476902,4.86559443 23.4476902,5.96127717 L23.4476902,11.6244905 C23.4476902,12.1732261 23.8925008,12.6180367 24.4412364,12.6180367 C24.989972,12.6180367 25.4347826,12.1732261 25.4347826,11.6244905 L25.4347826,5.96127717 C25.4347826,3.76991168 23.6519633,1.98709239 21.4605978,1.98709239 Z" id="Path"></path>
                        <path d="M19.4238281,13.4128736 C16.109358,13.4128736 13.4128736,16.109358 13.4128736,19.4238281 C13.4128736,22.7382982 16.109358,25.4347826 19.4238281,25.4347826 C22.7382982,25.4347826 25.4347826,22.7382982 25.4347826,19.4238281 C25.4347826,16.109358 22.7382982,13.4128736 19.4238281,13.4128736 Z M19.4238281,23.4476902 C17.2050904,23.4476902 15.399966,21.6426155 15.399966,19.4238281 C15.399966,17.2050408 17.2050904,15.399966 19.4238281,15.399966 C21.6425658,15.399966 23.4476902,17.2050408 23.4476902,19.4238281 C23.4476902,21.6426155 21.6425658,23.4476902 19.4238281,23.4476902 Z" id="Shape"></path>
                        <path d="M20.8644701,18.4302819 L20.4173743,18.4302819 L20.4173743,17.3870584 C20.4173743,16.8383229 19.9725637,16.3935122 19.4238281,16.3935122 C18.8750926,16.3935122 18.4302819,16.8383229 18.4302819,17.3870584 L18.4302819,19.4238281 C18.4302819,19.9725637 18.8750926,20.4173743 19.4238281,20.4173743 L20.8644701,20.4173743 C21.4132057,20.4173743 21.8580163,19.9725637 21.8580163,19.4238281 C21.8580163,18.8750926 21.4132057,18.4302819 20.8644701,18.4302819 Z" id="Path"></path>
                        <circle id="Oval" cx="14.8535156" cy="10.4322351" r="1"></circle>
                        <circle id="Oval" cx="10.5315897" cy="14.754161" r="1"></circle>
                        <circle id="Oval" cx="6.20966372" cy="10.4322351" r="1"></circle>
                        <circle id="Oval" cx="6.20966372" cy="14.754161" r="1"></circle>
                        <circle id="Oval" cx="6.20966372" cy="19.076087" r="1"></circle>
                        <circle id="Oval" cx="10.5315897" cy="19.076087" r="1"></circle>
                        <circle id="Oval" cx="10.5315897" cy="10.4322351" r="1"></circle>
                    </g>
                </g>
            </g>
        </g>
    </g>
</svg>