<?xml version="1.0" encoding="UTF-8"?>
<svg width="45px" height="45px" viewBox="0 0 45 45" version="1.1" xmlns="http://www.w3.org/2000/svg" xmlns:xlink="http://www.w3.org/1999/xlink">
    <!-- Generator: Sketch 53.2 (72643) - https://sketchapp.com -->
    <title>Group 58</title>
    <desc>Created with Sketch.</desc>
    <g id="Page-1" stroke="none" stroke-width="1" fill="none" fill-rule="evenodd">
        <g id="Landing-page" transform="translate(-1248.000000, -3864.000000)">
            <g id="Group-60" transform="translate(1197.000000, 3759.000000)">
                <g id="Group-58" transform="translate(51.000000, 105.000000)">
                    <rect id="Rectangle" fill="#5D34F3" x="0" y="0" width="45" height="45" rx="5"></rect>
                    <g id="business-and-finance" transform="translate(10.434783, 14.347826)" fill="#FFFFFF" fill-rule="nonzero">
                        <path d="M21.6847826,0 L3.09782609,0 C1.38933266,0 0,1.42589405 0,3.17934783 L0,13.7771739 C0,15.5306277 1.38933266,16.9565217 3.09782609,16.9565217 L21.6847826,16.9565217 C23.393276,16.9565217 24.7826087,15.5306277 24.7826087,13.7771739 L24.7826087,3.17934783 C24.7826087,1.42589405 23.393276,0 21.6847826,0 Z M22.7173913,13.7771739 C22.7173913,14.3616585 22.2542804,14.8369565 21.6847826,14.8369565 L3.09782609,14.8369565 C2.52832826,14.8369565 2.06521739,14.3616585 2.06521739,13.7771739 L2.06521739,3.17934783 C2.06521739,2.59486321 2.52832826,2.11956522 3.09782609,2.11956522 L21.6847826,2.11956522 C22.2542804,2.11956522 22.7173913,2.59486321 22.7173913,3.17934783 L22.7173913,13.7771739 Z" id="Shape"></path>
                        <path d="M12.3913043,4.76902174 C10.3984402,4.76902174 8.77717391,6.4329529 8.77717391,8.47826087 C8.77717391,10.5235688 10.3984402,12.1875 12.3913043,12.1875 C14.3841685,12.1875 16.0054348,10.5235688 16.0054348,8.47826087 C16.0054348,6.4329529 14.3841685,4.76902174 12.3913043,4.76902174 Z M12.3913043,10.0679348 C11.5374358,10.0679348 10.8423913,9.35459968 10.8423913,8.47826087 C10.8423913,7.60192206 11.5374358,6.88858696 12.3913043,6.88858696 C13.2451729,6.88858696 13.9402174,7.60192206 13.9402174,8.47826087 C13.9402174,9.35459968 13.2451729,10.0679348 12.3913043,10.0679348 Z" id="Shape"></path>
                        <path d="M6.19565217,7.41847826 L5.67934783,7.41847826 C5.10934583,7.41847826 4.64673913,7.89325882 4.64673913,8.47826087 C4.64673913,9.06326292 5.10934583,9.53804348 5.67934783,9.53804348 L6.19565217,9.53804348 C6.76565417,9.53804348 7.22826087,9.06326292 7.22826087,8.47826087 C7.22826087,7.89325882 6.76565417,7.41847826 6.19565217,7.41847826 Z" id="Path"></path>
                        <path d="M19.1032609,7.41847826 L18.5869565,7.41847826 C18.0169545,7.41847826 17.5543478,7.89325882 17.5543478,8.47826087 C17.5543478,9.06326292 18.0169545,9.53804348 18.5869565,9.53804348 L19.1032609,9.53804348 C19.6732629,9.53804348 20.1358696,9.06326292 20.1358696,8.47826087 C20.1358696,7.89325882 19.6732629,7.41847826 19.1032609,7.41847826 Z" id="Path"></path>
                    </g>
                </g>
            </g>
        </g>
    </g>
</svg>