<?xml version="1.0" encoding="UTF-8"?>
<svg width="1100px" height="797px" viewBox="0 0 1100 797" version="1.1" xmlns="http://www.w3.org/2000/svg" xmlns:xlink="http://www.w3.org/1999/xlink">
    <!-- Generator: Sketch 53.2 (72643) - https://sketchapp.com -->
    <title>Group 45</title>
    <desc>Created with Sketch.</desc>
    <defs>
        <path d="M507.5,0 L1100,0 L1100,797 L507.5,797 C287.414527,797 109,618.585473 109,398.5 L109,398.5 C109,178.414527 287.414527,4.04290455e-14 507.5,0 Z" id="path-1"></path>
        <linearGradient x1="9.56013774%" y1="44.1853836%" x2="103.229597%" y2="74.4277214%" id="linearGradient-3">
            <stop stop-color="#FFFFFF" offset="0%"></stop>
            <stop stop-color="#FFFFFF" offset="100%"></stop>
        </linearGradient>
        <linearGradient x1="9.56013774%" y1="44.6163624%" x2="103.229597%" y2="72.6171413%" id="linearGradient-4">
            <stop stop-color="#FFFFFF" offset="0%"></stop>
            <stop stop-color="#FFFFFF" offset="100%"></stop>
        </linearGradient>
        <filter x="-19.9%" y="-31.4%" width="139.8%" height="162.9%" filterUnits="objectBoundingBox" id="filter-5">
            <feOffset dx="0" dy="59" in="SourceAlpha" result="shadowOffsetOuter1"></feOffset>
            <feGaussianBlur stdDeviation="29" in="shadowOffsetOuter1" result="shadowBlurOuter1"></feGaussianBlur>
            <feColorMatrix values="0 0 0 0 0   0 0 0 0 0   0 0 0 0 0  0 0 0 0.5 0" type="matrix" in="shadowBlurOuter1" result="shadowMatrixOuter1"></feColorMatrix>
            <feMerge>
                <feMergeNode in="shadowMatrixOuter1"></feMergeNode>
                <feMergeNode in="SourceGraphic"></feMergeNode>
            </feMerge>
        </filter>
    </defs>
    <g id="Page-1" stroke="none" stroke-width="1" fill="none" fill-rule="evenodd">
        <g id="about-us" transform="translate(-820.000000, -143.000000)">
            <g id="Group-45" transform="translate(820.000000, 143.000000)">
                <g id="Group-4" transform="translate(227.000000, 453.000000) scale(-1, 1) translate(-227.000000, -453.000000) translate(0.000000, 109.000000)">
                    <path d="M236.608466,535.018462 L258.103717,688 L335.095238,688 C329.553957,589.144597 319.475107,431.895936 308.260766,365.012216 L252.73814,461.794265 L236.608466,535.018462" id="Fill-14" fill="#3E2934"></path>
                    <path d="M168.822656,367.306699 C149.852237,452.601011 131.921383,594.950864 121.306878,688 L207.194639,688 L240.778058,535.018462 L254.546275,461.794265 L309.873016,365.012216 L168.822656,367.306699" id="Fill-15" fill="#3E2934"></path>
                    <polyline id="Stroke-16" stroke="#1B171C" stroke-width="1.2636" stroke-linecap="round" stroke-linejoin="round" points="239.010582 540.314136 252.148901 457.91483 272.640212 444.25829"></polyline>
                    <path d="M197.125011,192.250102 C186.437094,179.047586 167.274226,176.203062 153.136816,185.719685 L15.4216067,268.20217 C-0.282952679,278.773773 -4.69345418,299.746963 5.44562974,315.632705 L5.44562974,315.634884 C16.435515,332.843711 30.2907936,336.372665 46.7579884,324.166278 C61.3604734,313.341827 189.906424,246.845351 200.462092,238.97877 C215.203439,227.993021 208.66373,206.49888 197.125011,192.250102" id="Fill-17" fill="#FF6E67"></path>
                    <path d="M147.730159,397.813993 L49.8789268,277.344625 C38.6579491,264.996663 19.3733356,264.505551 7.53714864,276.270317 C-4.43306605,288.166632 -1.3745971,311.275211 11.2811365,322.443628 L123.348097,419.04363 L147.730159,397.813993" id="Fill-18" fill="#FF6E67"></path>
                    <path d="M205.979178,406.673946 L177.128922,390.508892 L180.258553,384.117648 C181.394217,381.792959 180.848225,378.986618 178.919778,377.266744 C176.927997,375.489688 173.986188,375.331336 171.817505,376.884061 L143.218407,397.331205 L123.708995,419.359665 C139.088518,433.655291 149.475483,433.875224 155.557842,431.447167 C156.247977,431.706687 156.927192,431.9904 157.628246,432.22133 L181.809172,440.198289 C184.032454,441.267162 186.696899,440.405026 187.889347,438.23429 C188.752015,436.659572 189.132026,434.095156 184.517296,431.513146 L189.132026,434.095156 C191.481979,435.22561 194.299301,434.275501 195.504853,431.948613 C196.633966,429.894442 195.44807,427.079303 192.750866,425.163689 L196.297635,426.723012 C198.8638,427.956834 201.982511,426.780194 203.063576,424.031036 C203.998316,421.653563 202.829892,418.943992 200.608793,417.705771 L195.509221,414.862041 L201.62434,416.599509 C204.428558,417.718967 207.656467,416.306999 208.696037,413.342306 C209.591465,410.802083 208.320394,407.984745 205.979178,406.673946" id="Fill-19" fill="#E5AF9C"></path>
                    <path d="M284.075856,192.175827 C293.268167,179.019795 309.697863,176.21976 321.795199,185.744666 L439.648991,268.346794 C453.083908,278.929057 456.816437,299.873843 448.08604,315.71025 C438.62884,332.86509 426.743853,336.359151 412.654376,324.142991 C400.162991,313.308355 290.135469,246.684051 281.105156,238.812623 C268.493367,227.816991 274.152363,206.376161 284.075856,192.175827" id="Fill-20" fill="#FF6E67"></path>
                    <path d="M326.687831,397.90774 L411.139316,278.438237 C420.820885,266.194447 437.409413,265.745813 447.564001,277.456033 C457.832465,289.296923 455.145452,312.244772 444.233156,323.31253 L347.61237,419.04363 L326.687831,397.90774" id="Fill-21" fill="#FF6E67"></path>
                    <path d="M275.234305,406.619962 L300.063995,390.509398 L297.389226,384.109613 C296.417175,381.779818 296.895589,378.974824 298.554816,377.258828 C300.270583,375.485632 302.801828,375.333832 304.658945,376.891429 L329.188539,397.401982 L345.904762,419.474532 C332.654867,433.7437 323.73027,433.9439 318.506858,431.501905 C317.915364,431.761505 317.328219,432.043104 316.725853,432.271903 L295.927888,440.202885 C294.016406,441.265483 291.728717,440.400885 290.708825,438.22729 C289.969458,436.647693 289.649791,434.084699 293.622802,431.510705 L289.649791,434.084699 C287.625229,435.206697 285.207064,434.254099 284.178473,431.922104 C283.212947,429.865109 284.239362,427.051315 286.559671,425.14172 L283.508694,426.694916 C281.29929,427.922513 278.622346,426.738916 277.702486,423.986722 C276.90223,421.606328 277.913424,418.900334 279.824905,417.666136 L284.213267,414.832543 L278.955061,416.557339 C276.541245,417.670536 273.772967,416.25154 272.883552,413.285946 C272.120264,410.740552 273.220616,407.926759 275.234305,406.619962" id="Fill-22" fill="#E5AF9C"></path>
                    <path d="M161.809803,180.565814 C161.809803,180.565814 196.122954,166.897033 247.827158,166.897033 C299.529161,166.897033 330.291005,189.602678 330.291005,189.602678 L310.68066,365.104265 L168.784719,367.413613 L145.328042,241.175165 L161.809803,180.565814" id="Fill-23" fill="#FF6E67"></path>
                    <path d="M321.883598,264.153578 L324.285714,235.336824" id="Stroke-24" stroke="#1B171C" stroke-width="1.2636" stroke-linecap="round" stroke-linejoin="round"></path>
                    <path d="M187.84803,78.0453752 C187.84803,78.0453752 155.782639,28.5540381 194.392476,22.8488265 C217.449195,19.4410892 224.098039,12.1309433 252.296357,2.15396812 C284.914188,-9.39056615 329.790076,27.5163272 281.408157,64.1000351 L205.800126,47.468079 L187.84803,78.0453752" id="Fill-25" fill="#3E2934"></path>
                    <path d="M255.825397,88.852772 C255.825397,98.7988032 263.891141,106.862129 273.842384,106.862129 C283.791399,106.862129 291.857143,98.7988032 291.857143,88.852772 C291.857143,78.9045127 283.791399,70.8411867 273.842384,70.8411867 C263.891141,70.8411867 255.825397,78.9045127 255.825397,88.852772" id="Fill-26" fill="#D07375"></path>
                    <path d="M256.137296,110.561838 L257.025228,171.338697 C257.16578,188.427743 245.214395,189.710297 228.064816,189.710297 C213.427326,189.710297 205.993685,184.523176 204.179894,170.27282 L206.59382,105.661431 L256.137296,110.561838" id="Fill-27" fill="#E5AF9C"></path>
                    <polyline id="Fill-28" fill="#1B171C" points="257.026455 164.495637 217.391534 136.089001 256.487648 124.8726 257.026455 164.495637"></polyline>
                    <path d="M238.336338,141.682373 L241.786015,141.682373 C265.332378,141.682373 284.202071,122.26342 283.426665,98.8255419 L282.02124,56.2429274 C281.25024,32.9191235 262.041307,14.408377 238.609492,14.408377 C214.618151,14.408377 190.968254,33.7746807 190.968254,57.6644685 L193.021319,98.7487612 C194.226283,122.796498 214.157754,141.682373 238.336338,141.682373" id="Fill-29" fill="#E5AF9C"></path>
                    <polyline id="Stroke-30" stroke="#1B171C" stroke-width="1.47" stroke-linecap="round" stroke-linejoin="round" points="258.828042 85.2495637 261.830688 100.858639 255.825397 100.858639"></polyline>
                    <path d="M236.092489,64.990659 C236.092489,64.990659 245.983298,63.8136229 246.216903,67.9896824 C246.216903,67.9896824 246.298552,70.8205577 237.661955,71.6751181 C229.025358,72.5296785 226.755076,71.9492224 225.879623,69.3164392 C225.00417,66.6859594 231.440793,65.1749308 236.092489,64.990659" id="Fill-31" fill="#1B171C"></path>
                    <path d="M272.874456,64.8674548 C272.874456,64.8674548 264.771577,64.314945 264.234666,67.9713227 C264.234666,67.9713227 263.932653,70.445884 271.022114,70.7765366 C278.111574,71.1071892 280.384496,70.1600295 280.984047,68.1526483 C281.666371,65.8786118 276.715606,64.8055908 272.874456,64.8674548" id="Fill-32" fill="#1B171C"></path>
                    <path d="M263.031746,108.062827 L236.608466,108.062827 C236.608466,108.062827 236.537081,117.648208 251.894771,117.668393 C262.069051,117.684092 263.031746,108.062827 263.031746,108.062827" id="Fill-33" fill="#FFFFFE"></path>
                    <path d="M244.940666,85.2495637 C244.940666,85.2495637 240.36682,79.8464223 234.206349,85.2495637 M276.243386,85.2495637 C276.243386,85.2495637 273.168496,79.8464223 267.005887,85.2495637" id="Stroke-34" stroke="#1B171C" stroke-width="1.47" stroke-linecap="round" stroke-linejoin="round"></path>
                    <path d="M198.713403,88.8516579 C198.713403,88.8516579 225.881654,71.3690687 216.155101,46.7641071 C216.155101,46.7641071 260.1938,25.2641101 280.430458,47.665477 L285.851852,19.0364636 L251.075703,4.80279232 L196.614447,26.5464028 L182.560847,47.785069 L187.284047,75.1982297 L198.713403,88.8516579" id="Fill-35" fill="#3E2934"></path>
                    <path d="M169.349206,88.852772 C169.349206,98.7988032 177.414951,106.862129 187.366194,106.862129 C197.315208,106.862129 205.380952,98.7988032 205.380952,88.852772 C205.380952,78.9045127 197.315208,70.8411867 187.366194,70.8411867 C177.414951,70.8411867 169.349206,78.9045127 169.349206,88.852772" id="Fill-36" fill="#E5AF9C"></path>
                    <path d="M194.571429,93.6544503 C194.571429,93.6544503 194.571429,81.0810519 181.359788,83.0593238" id="Stroke-37" stroke="#1B171C" stroke-width="1.47" stroke-linecap="round" stroke-linejoin="round"></path>
                    <polyline id="Fill-38" fill="#4E4287" points="216.190476 191.04372 230.416193 204.118674 246.216931 186.172831 230.416193 183.706806 216.190476 191.04372"></polyline>
                    <polyline id="Fill-39" fill="#6038F0" points="228.209519 201.049538 212.587302 330.468634 231.491553 351.804538 248.619048 330.214218 233.451503 200.516579 228.209519 201.049538"></polyline>
                    <polyline id="Fill-40" fill="#ECE0DA" points="205.872442 164.495637 230.603175 183.715473 214.09649 204.118674 189.767196 173.237682 205.872442 164.495637"></polyline>
                    <polyline id="Fill-41" fill="#ECE0DA" points="257.25915 165.696335 230.603175 183.949212 247.279876 204.118674 272.640212 173.591454 257.25915 165.696335"></polyline>
                </g>
                <mask id="mask-2" fill="white">
                    <use xlink:href="#path-1"></use>
                </mask>
                <use id="Mask" fill="#6038F0" xlink:href="#path-1"></use>
                <path d="M-148.787123,541.36957 C-148.787123,541.36957 -199.20901,851.882695 350.152278,874.159832 C899.513566,896.431298 1149.89194,469.530339 970.686621,352.643423 C813.72086,250.258199 606.753844,403.33412 385.620166,320.19185 C101.639784,213.428328 -149.569067,351.79839 -148.787123,541.36957" id="Fill-5" fill="#4E2DC4" mask="url(#mask-2)"></path>
                <g opacity="0.253371466" mask="url(#mask-2)" id="Path-6">
                    <g transform="translate(-1385.000000, -647.000000)">
                        <path d="M585.455321,783.307213 C649.029935,964.941489 759.032553,1041.18305 915.463175,1012.03188 C1150.10911,968.305139 1374.54709,886.061928 1487.51828,1151.5927 C1600.48947,1417.12347 1643.13304,1516.61309 1912.26781,1434.01761 C2181.40258,1351.42213 2477.55547,1135.56927 2521.45532,1365.40186" stroke="url(#linearGradient-3)" transform="translate(1553.455321, 1122.807213) rotate(8.000000) translate(-1553.455321, -1122.807213) "></path>
                        <path d="M659.398965,587.69449 C722.973578,769.328765 832.976196,845.570322 989.406819,816.419159 C1224.05275,772.692415 1448.49073,690.449204 1561.46192,955.979975 C1674.43312,1221.51075 1717.07668,1321.00037 1986.21145,1238.40489 C2255.34623,1155.80941 2551.49911,939.956548 2595.39896,1169.78914" stroke="url(#linearGradient-3)" transform="translate(1627.398965, 927.194490) rotate(8.000000) translate(-1627.398965, -927.194490) "></path>
                        <path d="M815.336794,440.968918 C878.911407,622.603193 988.914025,698.84475 1145.34465,669.693587 C1379.99058,625.966843 1604.42856,543.723633 1717.39975,809.254403 C1830.37094,1074.78517 1873.01451,1174.2748 2142.14928,1091.67932 C2411.28406,1009.08384 2707.43694,793.230976 2751.33679,1023.06357" stroke="url(#linearGradient-3)" transform="translate(1783.336794, 780.468918) rotate(8.000000) translate(-1783.336794, -780.468918) "></path>
                        <path d="M987.579266,250.082746 C1051.15388,431.717021 1161.1565,507.958578 1317.58712,478.807415 C1552.23305,435.080671 1776.67103,352.83746 1889.64222,618.368231 C2002.61342,883.899001 2045.25698,983.388627 2314.39176,900.793147 C2583.52653,818.197667 2879.67941,602.344804 2923.57927,832.177393" stroke="url(#linearGradient-3)" transform="translate(1955.579266, 589.582746) rotate(8.000000) translate(-1955.579266, -589.582746) "></path>
                        <path d="M1110.20661,132 C1173.78122,313.634276 1283.78384,389.875832 1440.21446,360.72467 C1674.8604,316.997926 1899.29838,234.754715 2012.26957,500.285485 C2125.24076,765.816255 2167.88433,865.305881 2437.0191,782.710401 C2706.15387,700.114922 3002.30676,484.262058 3046.20661,714.094647" stroke="url(#linearGradient-3)" transform="translate(2078.206609, 471.500000) rotate(8.000000) translate(-2078.206609, -471.500000) "></path>
                        <path d="M423.286815,988.736947 C486.861429,1170.37122 596.864047,1246.61278 753.294669,1217.46162 C987.940602,1173.73487 1212.37858,1091.49166 1325.34977,1357.02243 C1438.32097,1622.5532 1480.96453,1722.04283 1750.0993,1639.44735 C2019.23408,1556.85187 2315.38696,1340.99901 2359.28681,1570.83159" stroke="url(#linearGradient-3)" transform="translate(1391.286815, 1328.236947) rotate(8.000000) translate(-1391.286815, -1328.236947) "></path>
                        <path d="M356.135875,1186.31415 C419.710488,1367.94843 529.713106,1444.18998 686.143729,1415.03882 C920.789662,1371.31208 1145.22764,1289.06887 1258.19883,1554.59964 C1371.17003,1820.13041 1413.81359,1919.62003 1682.94836,1837.02455 C1952.08314,1754.42907 2248.23602,1538.57621 2292.13587,1768.4088" stroke="url(#linearGradient-3)" transform="translate(1324.135875, 1525.814150) rotate(8.000000) translate(-1324.135875, -1525.814150) "></path>
                        <path d="M294.630187,1360.09911 C360.700498,1541.73338 475.021401,1617.97494 637.592894,1588.82378 C881.450135,1545.09703 1114.6987,1462.85382 1232.10471,1728.38459 C1349.51072,1993.91536 1393.82831,2093.40499 1673.52829,2010.80951 C1953.22827,1928.21403 2261.00699,1712.36116 2306.63019,1942.19375" stroke="url(#linearGradient-4)" transform="translate(1300.630187, 1699.599106) rotate(8.000000) translate(-1300.630187, -1699.599106) "></path>
                        <path d="M202,1478.81053 C265.574614,1660.4448 375.577232,1736.68636 532.007854,1707.5352 C766.653787,1663.80845 991.091767,1581.56524 1104.06296,1847.09601 C1217.03415,2112.62678 1259.67772,2212.11641 1528.81249,2129.52093 C1797.94726,2046.92545 2094.10015,1831.07259 2138,2060.90518" stroke="url(#linearGradient-3)" opacity="0.637532552" transform="translate(1170.000000, 1818.310528) rotate(8.000000) translate(-1170.000000, -1818.310528) "></path>
                    </g>
                </g>
                <g id="Group" filter="url(#filter-5)" mask="url(#mask-2)">
                    <g transform="translate(483.000000, 441.000000) scale(-1, 1) translate(-483.000000, -441.000000) translate(-83.000000, 84.000000)">
                        <g id="Group-4" stroke="none" stroke-width="1" fill="none" fill-rule="evenodd" transform="translate(595.000000, 25.000000)">
                            <path d="M236.483563,534.707405 L257.967467,687.6 L334.918346,687.6 C329.37999,588.802072 319.30646,431.644833 308.098039,364.8 L252.604723,461.52578 L236.483563,534.707405" id="Fill-14" fill="#3E2934"></path>
                            <path d="M168.733537,367.093148 C149.773132,452.33787 131.851744,594.604962 121.242842,687.6 L207.085264,687.6 L240.650955,534.707405 L254.411904,461.52578 L309.709438,364.8 L168.733537,367.093148" id="Fill-15" fill="#3E2934"></path>
                            <polyline id="Stroke-16" stroke="#1B171C" stroke-width="1.2636" stroke-linecap="round" stroke-linejoin="round" points="238.884411 540 252.015795 457.6486 272.496288 444"></polyline>
                            <path d="M197.020952,192.138329 C186.338677,178.943489 167.185924,176.100618 153.055977,185.611708 L15.4134658,268.046238 C-0.282803312,278.611696 -4.69097657,299.572692 5.44275506,315.449197 L5.44275506,315.451376 C16.426839,332.650198 30.2748035,336.1771 46.7333055,323.977809 C61.328082,313.159652 189.806175,246.701836 200.356271,238.839829 C215.089836,227.860467 208.553579,206.378823 197.020952,192.138329" id="Fill-17" fill="#FF6E67"></path>
                            <path d="M147.652174,397.582705 L49.8525964,277.183378 C38.6375421,264.842595 19.3631087,264.351768 7.53316988,276.109695 C-4.4307259,287.999093 -1.37387147,311.094238 11.2751813,322.25616 L123.282983,418.8 L147.652174,397.582705" id="Fill-18" fill="#FF6E67"></path>
                            <path d="M205.870444,406.437508 L177.035418,390.281852 L180.163396,383.894323 C181.298462,381.570986 180.752757,378.766277 178.825329,377.047403 C176.834599,375.27138 173.894343,375.11312 171.726805,376.664942 L143.142803,397.100198 L123.64369,419.115851 C139.015095,433.403166 149.396577,433.622971 155.475725,431.196325 C156.165496,431.455695 156.844352,431.739243 157.545036,431.970038 L181.713197,439.94236 C183.935306,441.010611 186.598344,440.148976 187.790162,437.979503 C188.652376,436.4057 189.032186,433.842775 184.419891,431.262267 L189.032186,433.842775 C191.380898,434.972572 194.196733,434.023015 195.401649,431.69748 C196.530166,429.644503 195.344896,426.831001 192.649115,424.916501 L196.194012,426.474917 C198.758823,427.708022 201.875887,426.532066 202.956382,423.784506 C203.890628,421.408416 202.72282,418.70042 200.502894,417.462919 L195.406014,414.620842 L201.517905,416.3573 C204.320643,417.476107 207.546848,416.06496 208.585869,413.101991 C209.480825,410.563245 208.210425,407.747545 205.870444,406.437508" id="Fill-19" fill="#E5AF9C"></path>
                            <path d="M283.925896,192.064097 C293.113354,178.915714 309.534378,176.117307 321.625327,185.636675 L439.416906,268.190779 C452.844731,278.766889 456.57529,299.699497 447.849501,315.526698 C438.397293,332.671563 426.518581,336.163593 412.436541,323.954535 C399.95175,313.126199 289.98231,246.54063 280.956765,238.673778 C268.351632,227.684539 274.007641,206.256175 283.925896,192.064097" id="Fill-20" fill="#FF6E67"></path>
                            <path d="M326.515376,397.676398 L410.922281,278.276354 C420.598739,266.039683 437.178511,265.59131 447.327738,277.294721 C457.590781,289.128727 454.905186,312.063234 443.998652,323.124558 L347.42887,418.8 L326.515376,397.676398" id="Fill-21" fill="#FF6E67"></path>
                            <path d="M275.089012,406.383555 L299.905595,390.282358 L297.232238,383.886293 C296.2607,381.557853 296.738862,378.75449 298.397213,377.039492 C300.112074,375.267326 302.641983,375.115615 304.498119,376.672306 L329.014765,397.170935 L345.722163,419.230652 C332.479263,433.491523 323.559377,433.691607 318.338722,431.251032 C317.747541,431.51048 317.160706,431.791916 316.558657,432.020583 L295.771672,439.946954 C293.861199,441.008933 291.574717,440.144838 290.555364,437.972507 C289.816387,436.393829 289.496888,433.832324 293.467802,431.259827 L289.496888,433.832324 C287.473396,434.95367 285.056507,434.001626 284.028459,431.670987 C283.063442,429.615187 284.089316,426.80303 286.4084,424.894544 L283.359033,426.446838 C281.150796,427.673721 278.475265,426.490812 277.555891,423.740218 C276.756057,421.361208 277.766717,418.656787 279.677189,417.423307 L284.063235,414.591361 L278.807805,416.315154 C276.395263,417.427705 273.628446,416.009533 272.7395,413.045664 C271.976615,410.50175 273.076387,407.689592 275.089012,406.383555" id="Fill-22" fill="#E5AF9C"></path>
                            <path d="M161.724386,180.460833 C161.724386,180.460833 196.019423,166.8 247.696334,166.8 C299.371044,166.8 330.116649,189.492444 330.116649,189.492444 L310.516656,364.891995 L168.69562,367.2 L145.251326,241.034947 L161.724386,180.460833" id="Fill-23" fill="#FF6E67"></path>
                            <path d="M321.71368,264 L324.114528,235.2" id="Stroke-24" stroke="#1B171C" stroke-width="1.2636" stroke-linecap="round" stroke-linejoin="round"></path>
                            <path d="M187.748868,78 C187.748868,78 155.700403,28.5374369 194.289859,22.8355423 C217.334407,19.4297863 223.979741,12.1238904 252.163173,2.15271582 C284.763785,-9.38510652 329.615984,27.5003293 281.259605,64.0627676 L205.691486,47.4404812 L187.748868,78" id="Fill-25" fill="#3E2934"></path>
                            <path d="M255.69035,88.8011134 C255.69035,98.741362 263.751836,106.8 273.697826,106.8 C283.641589,106.8 291.703075,98.741362 291.703075,88.8011134 C291.703075,78.858638 283.641589,70.8 273.697826,70.8 C263.751836,70.8 255.69035,78.858638 255.69035,88.8011134" id="Fill-26" fill="#D07375"></path>
                            <path d="M256.002085,110.497557 L256.889548,171.239081 C257.030026,188.318192 245.08495,189.6 227.944424,189.6 C213.31466,189.6 205.884943,184.415895 204.07211,170.173824 L206.484761,105.6 L256.002085,110.497557" id="Fill-27" fill="#E5AF9C"></path>
                            <polyline id="Fill-28" fill="#1B171C" points="256.890774 164.4 217.276776 136.00988 256.352251 124.8 256.890774 164.4"></polyline>
                            <path d="M238.210523,141.6 L241.65838,141.6 C265.192313,141.6 284.052045,122.192337 283.277047,98.7680852 L281.872365,56.210228 C281.101771,32.8999845 261.902978,14.4 238.483533,14.4 C214.504857,14.4 190.867444,33.7550442 190.867444,57.6309427 L192.919425,98.6913491 C194.123753,122.725105 214.044703,141.6 238.210523,141.6" id="Fill-29" fill="#E5AF9C"></path>
                            <polyline id="Stroke-30" stroke="#1B171C" stroke-width="1.47" stroke-linecap="round" stroke-linejoin="round" points="258.69141 85.2 261.692471 100.8 255.69035 100.8"></polyline>
                            <path d="M235.967859,64.9528737 C235.967859,64.9528737 245.853446,63.776522 246.086928,67.9501535 C246.086928,67.9501535 246.168534,70.779383 237.536496,71.6334465 C228.904459,72.4875101 226.635375,71.9073915 225.760384,69.276139 C224.885393,66.6471885 231.318618,65.1370384 235.967859,64.9528737" id="Fill-31" fill="#1B171C"></path>
                            <path d="M272.730409,64.8297412 C272.730409,64.8297412 264.631807,64.2775526 264.09518,67.9318045 C264.09518,67.9318045 263.793327,70.4049271 270.879045,70.7353875 C277.964762,71.0658478 280.236485,70.1192388 280.835719,68.1130247 C281.517683,65.8403103 276.569531,64.7679131 272.730409,64.8297412" id="Fill-32" fill="#1B171C"></path>
                            <path d="M262.892895,108 L236.483563,108 C236.483563,108 236.412216,117.579808 251.761799,117.599981 C261.930708,117.615671 262.892895,108 262.892895,108" id="Fill-33" fill="#FFFFFE"></path>
                            <path d="M244.811365,85.2 C244.811365,85.2 240.239934,79.8 234.082715,85.2 M276.097561,85.2 C276.097561,85.2 273.024294,79.8 266.864938,85.2" id="Stroke-34" stroke="#1B171C" stroke-width="1.47" stroke-linecap="round" stroke-linejoin="round"></path>
                            <path d="M198.608505,88.8 C198.608505,88.8 225.762414,71.327575 216.040995,46.7369187 C216.040995,46.7369187 260.056447,25.2494216 280.282423,47.6377645 L285.700954,19.0253959 L250.943164,4.8 L196.510656,26.5309689 L182.464475,47.757287 L187.185182,75.1545098 L198.608505,88.8" id="Fill-35" fill="#3E2934"></path>
                            <path d="M169.259809,88.8011134 C169.259809,98.741362 177.321296,106.8 187.267286,106.8 C197.211048,106.8 205.272534,98.741362 205.272534,88.8011134 C205.272534,78.858638 197.211048,70.8 187.267286,70.8 C177.321296,70.8 169.259809,78.858638 169.259809,88.8011134" id="Fill-36" fill="#E5AF9C"></path>
                            <path d="M194.468717,93.6 C194.468717,93.6 194.468717,81.0339118 181.264051,83.0110335" id="Stroke-37" stroke="#1B171C" stroke-width="1.47" stroke-linecap="round" stroke-linejoin="round"></path>
                            <polyline id="Fill-38" fill="#4E4287" points="216.076352 190.932648 230.294559 204 246.086957 186.064591 230.294559 183.6 216.076352 190.932648"></polyline>
                            <polyline id="Fill-39" fill="#6038F0" points="228.08905 200.932649 212.47508 330.276502 231.369352 351.6 248.487805 330.022233 233.328267 200.4 228.08905 200.932649"></polyline>
                            <polyline id="Fill-40" fill="#ECE0DA" points="205.763765 164.4 230.481442 183.608662 213.983472 204 189.66702 173.136963 205.763765 164.4"></polyline>
                            <polyline id="Fill-41" fill="#ECE0DA" points="257.123347 165.6 230.481442 183.842265 247.14934 204 272.496288 173.490529 257.123347 165.6"></polyline>
                        </g>
                        <path d="M319.727491,227.122817 C317.440608,215.047315 324.823718,203.244343 336.676542,200.027163 C349.470242,196.555179 362.600444,204.341108 365.693159,217.240846 C367.906985,226.478051 369.456663,242.72791 370.931071,260.019143 L322.536836,274.8 L319.727491,227.122817" id="Fill-42" stroke="none" fill="#B620E0" fill-rule="evenodd"></path>
                        <path d="M322.914104,275.124545 L370.537169,260.4 L376.830994,326.840342 C377.987804,339.057454 369.190826,349.550706 357.193561,351.237043 C357.049776,351.256908 356.908171,351.278981 356.764387,351.30326 C343.494849,353.371451 330.994339,344.41665 328.495545,331.053976 L322.914104,275.124545" id="Fill-43" stroke="none" fill="#9C6639" fill-rule="evenodd"></path>
                        <path d="M393.73913,510.754087 L375.190051,303.6 C375.190051,303.6 366.507364,305.675802 354.807646,307.562696 C342.972771,309.469358 335.194758,321.047722 337.834661,332.828175 L368.37775,511.2 L393.73913,510.754087" id="Fill-44" stroke="none" fill="#9C6639" fill-rule="evenodd"></path>
                        <path d="M361.840407,507.601325 C366.810962,494.958845 381.094045,488.744124 393.738932,493.710736 C406.383819,498.681652 412.602934,512.959585 407.632378,525.599913 C402.659669,538.240242 388.37874,544.457114 375.733853,539.48835 C363.088965,534.517435 356.867698,520.243805 361.840407,507.601325" id="Fill-45" stroke="none" fill="#9C6639" fill-rule="evenodd"></path>
                        <path d="M398.496402,536.595347 C398.496402,536.595347 405.216572,543.832568 410.983964,532.081882 C416.755768,520.333374 416.544039,505.358162 393.73913,494.4 L398.496402,536.595347" id="Fill-46" stroke="none" fill="#9C6639" fill-rule="evenodd"></path>
                        <path d="M243.374623,90 L341.831048,112.376369 C341.831048,112.376369 378.422117,164.398901 359.494342,238.8 L196.268855,238.8 C196.268855,238.8 182.946875,208.843971 212.444136,167.378901 C230.56764,141.899464 243.374623,90 243.374623,90" id="Fill-47" stroke="none" fill="#3E2934" fill-rule="evenodd"></path>
                        <g id="Group-3" stroke="none" stroke-width="1" fill="none" fill-rule="evenodd" transform="translate(72.025451, 37.200000)">
                            <path d="M226.093027,554.361919 L250.90669,675.6 L336.11877,675.6 C331.20387,635.594978 323.875403,583.357629 313.00338,518.680108 C284.110789,346.797441 265.693079,305.488454 265.693079,305.488454 L201.553633,294 L194.468717,304.313573 L249.943457,306.037606 L226.093027,554.361919" id="Fill-48" fill="#FFFFFF"></path>
                            <path d="M194.416116,303.172494 L169.741183,302.4 C169.741183,302.4 127.631803,347.496509 125.436922,430.921429 C123.974396,486.573887 125.491575,594.479393 127.032802,675.6 L214.323084,675.6 L249.688229,304.901826 L194.416116,303.172494" id="Fill-49" fill="#FFFFFF"></path>
                            <polyline id="Stroke-50" stroke="#1B171C" stroke-width="1.2636" stroke-linecap="round" stroke-linejoin="round" points="226.88017 553.2 238.144119 388.86275 258.091198 373.2"></polyline>
                            <path d="M219.423872,158.4 L158.491659,166.942038 C151.434805,167.930445 146.604585,174.592312 147.847205,181.623185 L168.958596,306 L267.024766,306 L292.60696,186.534472 C294.515817,175.846492 286.99435,165.775717 276.224976,164.598414 L219.423872,158.4" id="Fill-51" fill="#B620E0"></path>
                            <path d="M282.099682,226.8 L289.302227,195.6" id="Stroke-52" stroke="#1B171C" stroke-width="1.2636" stroke-linecap="round" stroke-linejoin="round"></path>
                            <path d="M103.927517,187.2 L126.044539,248.882456 C126.044539,248.882456 57.6224674,272.078786 42.5841196,281.332148 C25.6259829,291.764535 12.6345336,287.030771 3.66894329,269.164341 C-4.60850341,252.67565 1.57383102,232.541694 17.6465856,223.641598 L103.927517,187.2" id="Fill-53" fill="#9C6639"></path>
                            <path d="M148.571873,168.358368 C163.094563,160.314094 181.315018,164.885812 190.399948,178.849165 C200.206393,193.92276 204.522285,215.653379 189.27588,225.084902 C178.360765,231.839433 127.837114,248.4 127.837114,248.4 L105.637328,186.490117 L148.571873,168.358368" id="Fill-54" fill="#B620E0"></path>
                            <path d="M156.055143,238.8 L177.662778,230.4" id="Stroke-55" stroke="#1B171C" stroke-width="1.2636" stroke-linecap="round" stroke-linejoin="round"></path>
                            <path d="M134.447508,362.15727 L51.1820318,236.967686 C41.4987764,224.026244 22.9476053,221.785832 10.4523044,232.047094 C-2.18765348,242.426503 -1.36573841,264.999091 9.81230656,276.93191 L108.981291,380.4 L134.447508,362.15727" id="Fill-56" fill="#9C6639"></path>
                            <path d="M190.770259,375.951841 L164.085887,357.628489 L167.729279,351.73428 C169.05776,349.58973 168.781913,346.822072 167.058418,344.979168 C165.277548,343.074614 162.415355,342.647465 160.155613,343.948727 L130.330994,361.080907 L109.2386,380.588825 C122.940491,395.849477 133.065194,397.027438 139.228728,395.243983 C139.879727,395.55884 140.517487,395.895715 141.181727,396.186352 L164.061612,406.149482 C166.135985,407.391295 168.817221,406.805617 170.183218,404.815193 C171.174061,403.368613 171.778719,400.924618 167.510808,397.996229 L171.778719,400.924618 C173.972257,402.236889 176.812382,401.578552 178.202653,399.438406 C179.495825,397.55587 178.595459,394.722157 176.141521,392.61724 L179.462723,394.45574 C181.854872,395.886908 185.008359,395.037014 186.316979,392.476325 C187.451264,390.263519 186.559725,387.533291 184.505214,386.128545 L179.78712,382.902913 L185.599776,385.153149 C188.23467,386.494043 191.516151,385.428374 192.809323,382.658514 C193.917126,380.280573 192.93511,377.438054 190.770259,375.951841" id="Fill-57" fill="#9C6639"></path>
                            <path d="M254.53117,75.6331099 C253.886702,84.8892556 260.87128,92.9145195 270.128567,93.5587591 C279.387988,94.2029988 287.416091,87.2230245 288.060559,77.9668788 C288.705026,68.7107332 281.720448,60.6854693 272.461028,60.0412296 C263.203741,59.3969899 255.175638,66.3790975 254.53117,75.6331099" id="Fill-58" fill="#3E2934"></path>
                            <path d="M228.729753,14.5962964 C230.907563,10.7673071 228.10721,3.6 228.10721,3.6 C206.593417,3.6021905 188.028515,10.5110189 177.333873,30.232066 C161.60209,59.2386311 173.026309,104.093444 210.044711,117.740242 C245.569008,130.835035 226.648055,18.2522364 226.648055,18.2522364 L228.729753,14.5962964" id="Fill-59" fill="#3E2934"></path>
                            <path d="M248.487805,125.090858 L246.080097,162.401062 C245.262051,175.506579 236.630562,182.015769 223.54625,181.11825 C212.376608,180.353617 202.283691,173.953349 201.671262,162.939138 L208.328386,104.4 L248.487805,125.090858" id="Fill-60" fill="#9C6639"></path>
                            <polyline id="Fill-61" fill="#89532E" points="246.533981 154.8 202.871686 112.8 248.487805 120.446104 246.533981 154.8"></polyline>
                            <path d="M237.220612,129.599826 L237.220612,129.599826 C259.393077,129.663685 277.702507,112.120203 278.364241,93.9227209 L279.670179,50.9855603 C280.500633,28.1792537 263.181613,8.82351019 240.529281,7.24025882 C223.495113,6.05116877 192.5733,31.4844836 191.554405,46.21819 L190.877333,80.7634578 C190.353643,107.482751 210.692098,127.743525 237.220612,129.599826" id="Fill-62" fill="#9C6639"></path>
                            <path d="M226.709709,3.6264 C226.827351,3.612 226.930587,3.5904 227.05063,3.5736 C227.05063,3.5736 226.90898,3.5952 226.709709,3.6264" id="Fill-63" fill="#E8CB91"></path>
                            <path d="M279.667497,41.5040472 C280.587228,19.336492 261.069226,5.4722403 246.425797,1.92830668 C234.27878,-1.01008695 221.474813,-0.626723513 209.623425,3.32889016 C195.45957,8.05558712 180.150431,18.5632305 190.584997,41.6521649 C183.748331,45.0131296 177.662778,48.8424076 177.662778,48.8424076 L203.152461,79.2 C203.152461,79.2 204.998493,70.8422414 207.659142,52.989703 C220.962392,47.7620197 220.463109,40.0337613 221.833946,31.7108539 C251.403293,41.0531595 279.667497,41.5040472 279.667497,41.5040472" id="Fill-64" fill="#3E2934"></path>
                            <path d="M170.501743,75.6331099 C169.855105,84.8892556 176.840072,92.9145195 186.100008,93.5587591 C195.35781,94.2029988 203.38636,87.2230245 204.030864,77.9668788 C204.675367,68.7107332 197.690401,60.6854693 188.432599,60.0412296 C179.172663,59.3969899 171.144112,66.3790975 170.501743,75.6331099" id="Fill-65" fill="#9C6639"></path>
                            <path d="M193.583428,82.9260513 C193.583428,82.9260513 194.446931,70.9837835 182.464475,72.0698254 M254.333107,79.0012049 L255.69035,89.7966292 L249.891616,90" id="Stroke-66" stroke="#1B171C" stroke-width="1.422" stroke-linecap="round" stroke-linejoin="round"></path>
                            <path d="M228.874039,55.2719346 C228.874039,55.2719346 238.784024,54.4021734 238.884411,58.7113388 C238.884411,58.7113388 238.875682,61.6307517 230.229269,62.209038 C221.580674,62.7873243 219.332869,62.1111024 218.542863,59.3689062 C217.75504,56.6290419 224.225665,55.2975844 228.874039,55.2719346" id="Fill-67" fill="#1B171C"></path>
                            <path d="M269.23059,57.676002 C269.23059,57.676002 261.154873,56.8767376 260.495718,60.4620683 C260.495718,60.4620683 260.112289,62.8908407 267.182042,63.4381406 C274.251795,63.9854405 276.552373,63.1242176 277.220143,61.1663297 C277.976232,58.9440855 273.069195,57.7338299 269.23059,57.676002" id="Fill-68" fill="#1B171C"></path>
                            <path d="M228.082579,73.0819527 C228.017175,75.0686984 229.576304,76.7327561 231.563719,76.7981374 C233.553243,76.8614095 235.215751,75.3049145 235.281154,73.3181687 C235.346557,71.3293139 233.787429,69.6673653 231.800014,69.601984 C229.8126,69.5366028 228.147982,71.0952069 228.082579,73.0819527" id="Fill-69" fill="#1B171C"></path>
                            <path d="M262.895008,73.0819527 C262.827476,75.0686984 264.387034,76.7327561 266.374996,76.7981374 C268.362958,76.8614095 270.028034,75.3049145 270.093455,73.3181687 C270.158876,71.3293139 268.599318,69.6673653 266.611357,69.601984 C264.623395,69.5366028 262.958319,71.0952069 262.895008,73.0819527" id="Fill-70" fill="#1B171C"></path>
                            <path d="M252.089077,100.159212 C252.089077,100.159212 240.233683,103.532427 234.082715,94.8" id="Stroke-71" stroke="#1B171C" stroke-width="1.422" stroke-linecap="round" stroke-linejoin="round"></path>
                            <g id="Group-13" transform="translate(202.871686, 52.800000)" stroke="#FFFFFE" stroke-width="3">
                                <path d="M54.019088,18.3187572 L45.5801287,18.3187572 L54.019088,18.3187572 Z M10.5858093,18.3187572 L2.27373675e-13,18.3187572 L10.5858093,18.3187572 Z M10.5858093,18 C10.5858093,27.2781867 18.3756179,34.8 27.9843779,34.8 C37.5931378,34.8 45.3829464,27.2781867 45.3829464,18 C45.3829464,8.72181332 37.5931378,1.2 27.9843779,1.2 C18.3756179,1.2 10.5858093,8.72181332 10.5858093,18 Z" id="Stroke-72"></path>
                                <path d="M54.019088,16.2 C54.019088,25.1463342 61.2748262,32.4 70.2237164,32.4 C79.1748026,32.4 86.4305408,25.1463342 86.4305408,16.2 C86.4305408,7.25366581 79.1748026,4.61852778e-14 70.2237164,4.61852778e-14 C61.2748262,4.61852778e-14 54.019088,7.25366581 54.019088,16.2 Z" id="Stroke-73"></path>
                            </g>
                        </g>
                        <path d="M621.518287,400.8 L469.34513,407.082569 C453.196986,470.702333 444.69611,613.114527 440.555673,712.8 L539.92616,712.8 L556.635309,583.429825 L579.15691,712.8 L672.23754,712.8 C655.781393,601.433148 629.961963,431.226273 621.518287,400.8" id="Fill-74" stroke="none" fill="#3E2934" fill-rule="evenodd"></path>
                        <polyline id="Stroke-75" stroke="#1B171C" stroke-width="1.2636" fill="none" stroke-linecap="round" stroke-linejoin="round" points="558.197243 582 570.626114 486.906781 600.212089 472.8"></polyline>
                        <path d="M423.749735,211.087879 C423.749735,211.087879 492.84308,185.745238 553.889912,183.697788 C553.889912,183.697788 586.376668,181.654694 641.506042,196.246044 C643.509988,196.777509 644.844489,198.713875 644.59866,200.756968 L621.407317,399.344386 L468.942784,405.6 L423.749735,211.087879" id="Fill-76" stroke="none" fill="#FFCD40" fill-rule="evenodd"></path>
                        <polyline id="Fill-77" stroke="none" fill="#FFCD40" fill-rule="evenodd" points="493.196728 393.6 651.830329 324.124477 550.62453 308.4 490.973489 331.313503 493.196728 393.6"></polyline>
                        <path d="M401.151183,258.536204 C409.547357,294.22708 444.393792,372.178002 444.393792,372.178002 C451.715397,391.419717 473.486436,400.976063 492.742808,393.400964 C511.594013,385.987688 520.954658,364.911243 513.758566,346.087208 L470.342,232.511014 C462.661471,212.420818 439.331425,203.137822 419.808613,212.401137 C402.463566,220.632278 396.778037,239.948344 401.151183,258.536204" id="Fill-78" stroke="none" fill="#FFCD40" fill-rule="evenodd"></path>
                        <path d="M492.173913,288 L474.16755,238.8" id="Stroke-79" stroke="#1B171C" stroke-width="1.2636" fill="none" stroke-linecap="round" stroke-linejoin="round"></path>
                        <path d="M606.399248,257.876858 C628.370586,287.20622 686.895774,335.696267 686.895774,335.696267 C701.291923,350.401334 724.993166,350.514853 739.529636,335.951684 C753.761345,321.69196 753.855624,303.205839 739.737927,288.83478 L659.109849,206.633977 C644.044979,191.295823 619.032603,192.048978 604.928061,208.266903 C592.399948,222.672892 594.954244,242.602013 606.399248,257.876858" id="Fill-80" stroke="none" fill="#FFCD40" fill-rule="evenodd"></path>
                        <path d="M632.623542,278.70968 C632.623542,278.70968 636.13302,259.872778 664.029041,253.2 L693.845175,273.950953 L683.267906,283.2 L632.623542,278.70968" id="Fill-81" stroke="none" fill="#9C6639" fill-rule="evenodd"></path>
                        <polyline id="Fill-82" stroke="none" fill="#9C6639" fill-rule="evenodd" points="529.387063 273.6 492.173913 288.037951 506.71776 325.2 526.966091 317.67409 529.387063 273.6"></polyline>
                        <polyline id="Fill-83" stroke="none" fill="#FFCD40" fill-rule="evenodd" points="528.141171 274.8 728.657476 286.709052 716.359102 346.8 525.78579 318.836864 528.141171 274.8"></polyline>
                        <path d="M528.140365,274.021683 L632.60904,278.755829 L639.826087,228 M528.140365,378 L628.62926,334.061955 L525.78579,318.178597" id="Stroke-84" stroke="#1B171C" stroke-width="1.2636" fill="none" stroke-linecap="round" stroke-linejoin="round"></path>
                        <path d="M523.384942,27.6 C512.698072,28.2989477 476.510429,36.7017539 488.620722,71.9423867 C503.26677,114.569375 510.506984,120 510.506984,120 L509.287226,56.62066 L523.384942,27.6" id="Fill-85" stroke="none" fill="#3E2934" fill-rule="evenodd"></path>
                        <path d="M592.160897,31.2 C592.160897,31.2 634.192742,43.307313 603.248248,88.8 L560.598091,41.375132 L592.160897,31.2" id="Fill-86" stroke="none" fill="#3E2934" fill-rule="evenodd"></path>
                        <path d="M581.007704,101.638044 C580.852401,111.576372 588.249474,119.797617 597.527196,119.996251 C606.807044,120.197093 614.459409,112.30249 614.614712,102.364163 C614.772141,92.4236283 607.377195,84.2045898 598.095219,84.0037487 C588.815371,83.8029075 581.165133,91.6975103 581.007704,101.638044" id="Fill-87" stroke="none" fill="#9C6639" fill-rule="evenodd"></path>
                        <path d="M576.167265,139.381063 L578.552273,185.554107 C579.385133,201.150316 570.192496,208.174048 554.960511,208.767878 C541.957652,209.2747 527.371468,203.817115 527.235627,190.041551 L526.986214,120 L576.167265,139.381063" id="Fill-88" stroke="none" fill="#9C6639" fill-rule="evenodd"></path>
                        <path d="M577.40403,178.8 L523.418409,143.815383 C521.860669,130.549265 575.199599,135.184231 575.199599,135.184231 L577.40403,178.8" id="Fill-89" stroke="none" fill="#89532E" fill-rule="evenodd"></path>
                        <path d="M559.260292,158.4 L559.260292,158.4 C583.735859,157.232669 602.930482,136.339417 602.608957,115.703374 L601.708245,72.5362989 C601.30744,46.6725465 581.073365,25.7331294 555.978972,25.2099188 C530.289977,24.6779147 504.609792,45.612935 504.178155,72.0856343 L505.288078,105.716207 C506.254856,135.992076 529.873756,157.788855 559.260292,158.4" id="Fill-90" stroke="none" fill="#9C6639" fill-rule="evenodd"></path>
                        <path d="M550.583019,71.6724951 C550.583019,71.6724951 563.682711,69.0632469 564.198137,72.869218 C564.198137,72.869218 564.477691,75.4544882 556.595598,76.8452153 C548.71569,78.2359425 542.497814,78.698065 541.504089,76.3525753 C540.50818,74.002726 546.319831,72.167315 550.583019,71.6724951" id="Fill-91" stroke="none" fill="#1B171C" fill-rule="evenodd"></path>
                        <path d="M589.496368,75.7539873 C589.496368,75.7539873 600.439222,76.1272437 600.110936,80.3263779 C600.110936,80.3263779 601.504602,83.1904027 593.945774,82.754937 C586.389011,82.3194712 582.662246,81.460503 582.238985,78.7065409 C581.817788,75.9525789 585.461965,75.2419562 589.496368,75.7539873" id="Fill-92" stroke="none" fill="#1B171C" fill-rule="evenodd"></path>
                        <path d="M558.194062,126 C558.170559,126.703806 565.239052,133.057981 575,129.948397" id="Stroke-93" stroke="#1B171C" stroke-width="1.5" fill="none" stroke-linecap="round" stroke-linejoin="round"></path>
                        <path d="M587.008726,94.2996177 C587.063706,96.6171431 588.988001,98.453759 591.308608,98.3987979 C593.629216,98.3438369 595.464168,96.4179092 595.409188,94.1003838 C595.351918,91.7805683 593.429914,89.9462424 591.109307,90.0012035 C588.788699,90.0561646 586.951456,91.9798022 587.008726,94.2996177" id="Fill-94" stroke="none" fill="#1B171C" fill-rule="evenodd"></path>
                        <path d="M548.602132,97.5388765 C548.457776,99.85463 550.217546,101.847415 552.534118,101.99172 C554.85069,102.136025 556.84418,100.376877 556.988536,98.0611235 C557.132892,95.74537 555.373122,93.7525851 553.05655,93.6082799 C550.739978,93.4639748 548.746488,95.2231229 548.602132,97.5388765" id="Fill-95" stroke="none" fill="#1B171C" fill-rule="evenodd"></path>
                        <g id="Group-13" stroke="none" stroke-width="1" fill="none" fill-rule="evenodd" transform="translate(508.897137, 76.000000)">
                            <path d="M67.019088,18.3187572 L58.5801287,18.3187572 L67.019088,18.3187572 Z M23.5858093,18.3187572 L0.585809308,18.3187572 L23.5858093,18.3187572 Z M23.5858093,18 C23.5858093,27.2781867 31.3756179,34.8 40.9843779,34.8 C50.5931378,34.8 58.3829464,27.2781867 58.3829464,18 C58.3829464,8.72181332 50.5931378,1.2 40.9843779,1.2 C31.3756179,1.2 23.5858093,8.72181332 23.5858093,18 Z" id="Stroke-72" stroke="#FFFFFE" stroke-width="3"></path>
                            <path d="M67.019088,16.2 C67.019088,25.1463342 74.2748262,32.4 83.2237164,32.4 C92.1748026,32.4 99.4305408,25.1463342 99.4305408,16.2 C99.4305408,7.25366581 92.1748026,0 83.2237164,0 C74.2748262,0 67.019088,7.25366581 67.019088,16.2 Z" id="Stroke-73" stroke="#FFFFFE" stroke-width="3"></path>
                        </g>
                        <path d="M569.997879,101 L575.730942,111.23554 C576.186879,111.947102 576.051452,112.889009 575.414947,113.440925 L571.869025,115.4" id="Stroke-96" stroke="#1B171C" stroke-width="1.5" fill="none" stroke-linecap="round" stroke-linejoin="round"></path>
                        <path d="M517.542223,103.2 C517.542223,103.2 509.85666,68.0406371 526.446768,50.2075018 C526.446768,50.2075018 594.933228,70.627388 605.525765,43.2326292 C620.556195,4.35957073 577.161747,-7.32758339 552.375033,4.27907469 C532.481948,13.590508 522.3009,28.5649461 522.3009,28.5649461 C522.3009,28.5649461 475.587988,38.5268744 500.885746,89.1327739 L517.542223,103.2" id="Fill-97" stroke="none" fill="#3E2934" fill-rule="evenodd"></path>
                        <path d="M483.773392,106.436731 C483.616561,116.376462 491.013405,124.595683 500.294371,124.796261 C509.573189,124.996838 517.22354,117.102998 517.380372,107.163268 C517.537203,97.223537 510.142507,89.0043158 500.861541,88.8037383 C491.580575,88.6031607 483.930223,96.4992293 483.773392,106.436731" id="Fill-98" stroke="none" fill="#9C6639" fill-rule="evenodd"></path>
                        <path d="M506.579003,109.2 C506.579003,109.2 505.10263,97.9440912 495.775186,98.4143342" id="Stroke-99" stroke="#1B171C" stroke-width="1.5" fill="none" stroke-linecap="round" stroke-linejoin="round"></path>
                        <path d="M529.515669,185.68085 L511.3807,188.421926 C511.3807,188.421926 533.255924,206.807572 575.948389,219.6 L590.608696,185.68085 L565.31588,182.4 L529.515669,185.68085" id="Fill-100" stroke="none" fill="#9C6639" fill-rule="evenodd"></path>
                        <path d="M0,712.8 L1132,712.8" id="Stroke-101" stroke="#1B171C" stroke-width="1.4448" fill="none" stroke-linecap="round" stroke-linejoin="round"></path>
                    </g>
                </g>
            </g>
        </g>
    </g>
</svg>