<?xml version="1.0" encoding="UTF-8"?>
<svg width="720px" height="455px" viewBox="0 0 720 455" version="1.1" xmlns="http://www.w3.org/2000/svg" xmlns:xlink="http://www.w3.org/1999/xlink">
    <!-- Generator: Sketch 53.2 (72643) - https://sketchapp.com -->
    <title>Group 20</title>
    <desc>Created with Sketch.</desc>
    <defs>
        <path d="M667.016766,447 L28.4799769,447 C-14.5742605,260.674353 -8.81348225,185.51904 45.7623117,221.534061 C127.626003,275.556593 206.306106,200.550103 190.388166,120.186006 C174.470226,39.8219087 247.108101,-37.8633851 309.252991,20.1773516 C371.397882,78.2180883 367.095818,183.584349 483.27826,106.791989 C599.460702,29.9996302 690.666277,49.6441872 667.016766,134.472956 C643.367255,219.301725 647.915238,252.285872 688.847084,289.816331 C729.778929,327.346789 723.409366,384.560366 708.952918,399.674476 C699.315286,409.75055 685.336569,425.525724 667.016766,447 Z" id="path-1"></path>
    </defs>
    <g id="Page-1" stroke="none" stroke-width="1" fill="none" fill-rule="evenodd">
        <g id="Landing-page" transform="translate(-274.000000, -1416.000000)">
            <g id="Group-20" transform="translate(274.000000, 1415.500000)">
                <g id="Path-8" transform="translate(0.000000, 0.500000)">
                    <mask id="mask-2" fill="white">
                        <use xlink:href="#path-1"></use>
                    </mask>
                    <use id="Mask" fill="#6236FF" xlink:href="#path-1"></use>
                    <path d="M331.34109,372.63472 L-307.195699,372.63472 C-350.249936,186.309073 -344.489158,111.15376 -289.913364,147.168781 C-208.049673,201.191313 -129.36957,126.184822 -145.28751,45.8207254 C-161.20545,-34.5433716 -88.567575,-112.228665 -26.4226843,-54.1879286 C35.7222065,3.85280805 31.4201421,109.219069 147.602584,32.4267092 C263.785026,-44.3656501 354.990601,-24.7210931 331.34109,60.1076759 C307.69158,144.936445 312.239562,177.920592 353.171408,215.45105 C394.103253,252.981509 387.73369,310.195086 373.277242,325.309196 C363.63961,335.385269 349.660893,351.160444 331.34109,372.63472 Z" fill="#FF6E67" mask="url(#mask-2)"></path>
                </g>
                <polygon id="Fill-87" fill="#2D3637" points="2 455.5 686 455.5 686 430.5 2 430.5"></polygon>
                <g id="Group-69" transform="translate(0.000000, 14.500000)">
                    <path d="M326.767215,10.7199686 C326.767215,10.7199686 343.908231,-9.24118322 371.375309,5.313319 C412.389386,27.0461877 395.279461,44.3620736 377.93325,57.9353204 C341.628289,86.3437212 350.028837,93.5426032 333.223595,87.8659698 C312.457472,80.8517272 308.71215,81.8754496 302.720049,46.8050569 C299.262828,26.554842 298.234782,4.14434694 326.767215,10.7199686" id="Fill-4" fill="#20120C"></path>
                    <path d="M325.175122,49.3065354 C325.175122,49.3065354 334.698403,21.6761516 359.323275,24.4253577 C378.577906,26.5746886 379.913704,49.403402 374.451914,72.7377921 C368.988043,96.0754658 358.124802,109.587539 342.996163,102.158361 C327.051897,94.3310456 318.58144,83.2816832 317.805346,69.8607302 C317.805346,69.8607302 305.604227,66.2056569 310.083935,52.6513071 C314.840374,38.2518371 325.175122,49.3065354 325.175122,49.3065354" id="Fill-6" fill="#9C6639"></path>
                    <path d="M366.696078,124.69937 C366.696078,124.69937 351.502463,119.598413 354.010007,93.8431 L318.310985,69.4679612 C318.310985,69.4679612 323.185964,108.057601 304.227941,123.426184 C304.227941,123.426184 315.554129,169.065782 342.875439,169.628448 C359.468088,169.969333 365.50721,136.958915 366.696078,124.69937" id="Fill-7" fill="#9C6639"></path>
                    <path d="M360.737621,57.3514563 C360.737621,57.3514563 362.027915,67.881124 364.507632,71.2583437 C366.98945,74.6363707 360.853201,77.7243681 354.946011,74.6969197 C352.6197,73.504105 360.737621,57.3514563 360.737621,57.3514563" id="Fill-8" fill="#89532E"></path>
                    <path d="M353.533953,104.295693 C353.533953,104.295693 340.543493,104.014435 326.643139,91.3577993 C322.052024,87.1779274 325.229367,98.6623101 332.75005,106.915299 C337.091308,111.680271 352.432501,121.165049 361.017157,121.165049 C361.017157,121.165049 355.026846,115.531665 353.533953,104.295693" id="Fill-9" fill="#89532E"></path>
                    <path d="M366.705499,124.865607 C366.705499,124.865607 356.804693,133.36349 341.924523,133.423233 C335.583953,133.450014 314.247365,132.934991 303.986605,123.58835 C303.986605,123.58835 301.586911,123.843801 297.422615,124.589555 C227.175717,137.154061 181.453275,202.393084 178.37091,273.402428 C176.438743,317.910735 171.295951,360.781269 187.487678,416 L475.570918,416 C489.847027,356.098678 498.761062,307.439283 480.757153,238.360247 C473.44843,210.314142 459.083366,184.515598 438.6839,163.854926 C421.660555,146.611948 397.955304,130.260991 366.705499,124.865607" id="Fill-10" fill="#303438"></path>
                    <path d="M369.215243,60.3025916 C368.834976,61.8172206 369.761268,63.3512679 371.282336,63.7289542 C372.803405,64.1066405 374.343974,63.1848529 374.724241,61.6702239 C375.102558,60.1554008 374.176266,58.6213535 372.655198,58.2438613 C371.13413,57.866175 369.59356,58.7879627 369.215243,60.3025916" id="Fill-11" fill="#20120C"></path>
                    <path d="M344.065103,53.8406424 C343.686751,55.3552746 344.611177,56.8893251 346.132384,57.2668181 C347.653591,57.6445052 349.194301,56.7227156 349.574603,55.2080834 C349.952955,53.6934512 349.028529,52.1594007 347.507322,51.7817136 C345.986114,51.4040264 344.445405,52.3260102 344.065103,53.8406424" id="Fill-12" fill="#20120C"></path>
                    <path d="M344.821182,39.6178643 C346.973895,39.9372575 349.072237,40.4693751 351.142386,41.1443307 C352.664791,41.6408921 353.270934,43.7109196 352.682915,45.0955698 C351.996221,46.7052051 350.316743,47.1561973 348.788296,46.6580012 C347.223602,46.1477486 345.62266,45.8079208 343.997553,45.5663835 C340.227787,45.0068835 341.045375,39.0567295 344.821182,39.6178643" id="Fill-13" fill="#20120C"></path>
                    <path d="M372.951599,46.0973911 C374.687929,46.4036815 376.383529,46.9554114 377.974093,47.684403 C379.459619,48.3655685 380.152007,50.3447543 379.31814,51.7174646 C378.443545,53.1559104 376.662199,53.724532 375.071636,52.9947263 C374.784391,52.8630519 374.495003,52.7344303 374.201328,52.6167985 C374.061993,52.5614423 373.922657,52.51036 373.783322,52.4588707 C373.761886,52.4533757 373.725445,52.4423859 373.650418,52.4189817 C372.975179,52.2671593 372.325663,52.0715811 371.639706,51.9508966 C370.019132,51.6649577 368.792983,49.9365027 369.213132,48.4013872 C369.652574,46.7976871 371.217414,45.7915077 372.951599,46.0973911" id="Fill-14" fill="#20120C"></path>
                    <path d="M361.017157,84.4456468 L346.583227,79.968932 C346.583227,79.968932 344.944587,85.4782703 351.871947,87.5737109 C358.576047,89.6027255 361.017157,84.4456468 361.017157,84.4456468" id="Fill-15" fill="#FFFFFF"></path>
                    <path d="M338.748748,53.9831532 C339.913414,49.2531555 344.662777,46.3641198 349.33587,47.5432286 C354.006901,48.7223374 356.861879,53.5301634 355.697213,58.2599525 C354.532547,62.9897416 349.783184,65.8781512 345.110091,64.6990424 C340.436998,63.5199336 337.584082,58.7129423 338.748748,53.9831532 Z M364.503323,60.4825444 C365.670051,55.7527553 370.419414,52.8637197 375.090445,54.0426198 C379.666654,55.1977333 382.48865,59.833419 381.509506,64.4676442 L376.178841,62.1603384 L375.863453,64.2569027 L380.866363,66.4131424 C379.122456,70.1363803 374.964702,72.2329446 370.866728,71.1986423 C366.193635,70.0193249 363.338658,65.2123335 364.503323,60.4825444 Z M336.619368,54.3553935 C335.716494,59.8887126 339.152774,65.3030983 344.62155,66.6831418 C350.211946,68.0938575 355.880673,64.7685245 357.513267,59.2352055 C360.203336,57.968253 361.879218,59.6963328 362.452275,60.4625135 C361.316468,66.1299977 364.779545,71.7699394 370.378186,73.1823244 C376.13143,74.6339364 381.977434,71.0778311 383.412137,65.2540644 C384.846841,59.4300891 381.332229,53.5107585 375.578986,52.0587291 C370.431782,50.7600611 365.220675,53.4765391 363.149013,58.2322014 C361.959611,57.1747384 360.162109,56.3474218 357.935845,56.9141284 C358.313073,51.7321842 354.969554,46.858006 349.824411,45.5593379 C344.45458,44.204333 339.004356,47.2139712 337.136768,52.3558537 L326.104394,47.6170924 L325.321078,49.5014548 L336.619368,54.3553935 L336.619368,54.3553935 Z" id="Fill-16" fill="#FFFFFF"></path>
                    <path d="M366.696078,124.076255 L351.362353,149.502783 L339.345922,132.734273 L322.359731,150.24466 L304.227941,122.780583 C304.227941,122.780583 334.126851,144.056779 366.696078,124.076255" id="Fill-17" fill="#FF6E67"></path>
                    <path d="M428.252566,416 C428.252566,416 410.146001,250.660851 408.940129,226.401888 C407.732203,202.14086 425.838768,227.6137 428.252566,247.023348 C430.666364,266.430931 429.460492,291.695265 442.737408,309.994257 C456.016377,328.295312 465.671569,398.714637 465.671569,416 L428.252566,416" id="Fill-18" fill="#FFFFFF"></path>
                    <path d="M262.041667,217.516917 L253.791122,416 L223.534307,416 C223.534307,416 209.780646,381.196045 223.534307,344.059301 C237.285903,306.922558 229.799106,279.812674 239.731962,259.668122 C249.664817,239.52357 249.664817,210.640354 262.041667,217.516917" id="Fill-19" fill="#FFFFFF"></path>
                    <path d="M170.495057,105.817476 C170.495057,105.817476 156.965592,134.251078 134.184892,130.621212 C92.6370485,124.001804 62.633604,134.187251 22.3255994,174.79933 C-8.27357177,205.629508 -2.50240611,255.453167 10.6166052,276.349085 C47.0115486,334.319867 133.024869,295.84906 182.047727,224.392391 C231.068517,152.937781 170.495057,105.817476 170.495057,105.817476" id="Fill-20" fill="#20120C"></path>
                    <path d="M174.565516,109.817913 C182.298141,105.616074 195.287549,103.344698 205.108457,104.502977 C222.600145,106.568983 241.97603,116.878481 235.676136,150.049599 C226.801449,196.791465 181.327182,187.27469 164.476615,169.855335 C150.753318,155.66848 152.612776,121.745714 174.565516,109.817913" id="Fill-21" fill="#20120C"></path>
                    <path d="M201.572736,95.0528279 C199.965716,106.663878 193.149803,115.311724 181.558214,113.702006 C165.541646,111.478569 155.132114,98.5326302 156.739135,86.9215798 C158.346155,75.3084629 167.371463,65.062057 184.008972,67.3729019 C195.602624,68.9830337 204.054438,77.1268869 201.572736,95.0528279" id="Fill-22" fill="#20120C"></path>
                    <path d="M181.561349,148.521491 C181.561349,148.521491 186.918104,117.126214 213.373957,117.126214 C233.427025,117.126214 237.905861,140.279402 235.483803,165.21886 C233.059669,190.164527 223.755394,205.638623 207.220227,199.961062 C189.792613,193.977166 180.108529,184.410382 177.483076,170.592155 C177.483076,170.592155 163.859775,167.657127 166.701076,153.013035 C169.839167,136.831055 181.561349,148.521491 181.561349,148.521491" id="Fill-23" fill="#9C6639"></path>
                    <path d="M206.875,224.509118 C206.875,224.509118 199.865825,214.491573 203.369378,196.461647 L178.823823,167.207767 C178.823823,167.207767 174.337868,211.48693 159.821078,218.497763 C159.821078,218.497763 168.553075,252.775936 185.572403,255.780578 C202.59173,258.785221 203.869886,237.028462 206.875,224.509118" id="Fill-24" fill="#9C6639"></path>
                    <path d="M219.783125,153.475728 C219.783125,153.475728 223.051457,161.919064 226.275129,164.843352 C229.500831,167.767639 223.033187,170.233906 220.398221,170.43701 C217.765285,170.642187 219.783125,153.475728 219.783125,153.475728" id="Fill-25" fill="#89532E"></path>
                    <path d="M180.83534,167.630659 C180.376541,170.040643 178.041582,171.624872 175.620598,171.168157 C173.201662,170.711443 171.610203,168.387092 172.069002,165.977108 C172.527801,163.567124 174.860712,161.982895 177.281696,162.43961 C179.704728,162.896324 181.294139,165.220675 180.83534,167.630659" id="Fill-26" fill="#FFFFFF"></path>
                    <path d="M203.629902,197.183168 C203.629902,197.183168 191.833602,190.391226 187.910666,185.180598 C183.985615,179.969971 186.368984,196.456055 188.079849,199.814525 C191.013063,205.571008 197.169218,210.056606 203.629902,213.250485 C203.629902,213.250485 202.155893,206.106446 203.629902,197.183168" id="Fill-27" fill="#89532E"></path>
                    <path d="M286.762524,292.020386 C269.737007,256.269411 236.553184,235.054773 206.914793,224.088583 C206.914793,224.088583 205.167949,240.147028 194.341243,240.303777 C180.964642,240.495587 166.716689,230.754508 159.826591,218.097087 C159.826591,218.097087 120.210079,221.677547 72.7203511,255.61973 C37.1232353,281.062446 14.772121,321.245684 13.0873689,364.869134 C12.1344698,389.544608 17.2982144,412.471102 38.6693162,416 L302.573116,416 C331.571964,388.752617 286.762524,292.020386 286.762524,292.020386" id="Fill-28" fill="#FFCD40"></path>
                    <path d="M228.779412,152.263106 C228.779412,153.824808 230.051365,155.091262 231.619848,155.091262 C233.188331,155.091262 234.458333,153.824808 234.458333,152.263106 C234.458333,150.701405 233.188331,149.436893 231.619848,149.436893 C230.051365,149.436893 228.779412,150.701405 228.779412,152.263106" id="Fill-29" fill="#20120C"></path>
                    <path d="M202.818627,152.264078 C202.818627,153.825243 204.090581,155.091262 205.659064,155.091262 C207.225595,155.091262 208.497549,153.825243 208.497549,152.264078 C208.497549,150.702913 207.225595,149.436893 205.659064,149.436893 C204.090581,149.436893 202.818627,150.702913 202.818627,152.264078" id="Fill-30" fill="#20120C"></path>
                    <path d="M199.838567,138.309957 C202.122782,138.080732 204.409124,138.082874 206.69972,138.234976 C208.386296,138.348518 209.528403,140.298002 209.273184,141.859731 C208.975427,143.672108 207.367544,144.5633 205.676715,144.449759 C203.943348,144.334075 202.21849,144.400486 200.491504,144.57187 C196.48881,144.972478 195.827366,138.710565 199.838567,138.309957" id="Fill-31" fill="#20120C"></path>
                    <path d="M229.329471,137.352921 C231.057902,137.248651 232.809463,137.3988 234.50425,137.749146 C236.087594,138.076552 237.244087,139.880417 236.794106,141.442376 C236.320995,143.077324 234.767089,144.063715 233.070199,143.711284 C232.763203,143.648722 232.456207,143.588246 232.147108,143.540282 C232.002021,143.517342 231.854831,143.500659 231.709743,143.481891 C231.688716,143.481891 231.650867,143.479805 231.573067,143.473549 C230.89389,143.481891 230.225227,143.440183 229.543948,143.481891 C227.929063,143.577819 226.328898,142.149325 226.34572,140.522718 C226.364644,138.825208 227.60104,137.457191 229.329471,137.352921" id="Fill-32" fill="#20120C"></path>
                    <path d="M227.156863,176.998555 L210.120675,175.285437 C210.120675,175.285437 209.900542,185.015202 218.06223,185.748508 C225.959759,186.456956 227.156863,176.998555 227.156863,176.998555" id="Fill-33" fill="#FFFFFF"></path>
                    <path d="M340.297288,213.81012 C340.447019,214.63746 333.781887,218.55806 330.508589,223.275129 C339.428013,220.358861 340.785995,216.104855 346.296947,212.054597 C358.554136,203.044418 356.884213,210.478124 356.884213,210.478124 C352.458815,223.641464 329.541573,237.220531 326.201729,244.646004 C322.863963,252.073536 321.678589,259.293204 321.678589,259.293204 L306.661765,253.452435 C306.661765,253.452435 308.450225,248.801224 310.556864,242.662036 C311.748477,239.183918 312.374438,235.979522 313.588927,233.561304 C314.551784,230.245772 316.972444,224.845428 322.980421,220.653163 C332.309527,214.143526 339.321953,208.418008 340.297288,213.81012" id="Fill-34" fill="#9C6639"></path>
                    <path d="M85.285365,338.897138 C85.285365,338.897138 155.404035,354.745548 196.382532,379.650485 C196.382532,379.650485 202.300661,371.952334 195.471256,363.802076 C188.641851,355.651817 146.297472,339.803407 138.556791,321.238245 C130.81611,302.673082 121.254943,294.520768 113.970933,299.502167 C106.684856,304.483565 83.4628127,323.500835 85.285365,338.897138" id="Fill-35" fill="#D19B07"></path>
                    <path d="M282.323529,287.945014 C282.323529,287.945014 254.084845,395.217885 249.534652,416 C249.534652,416 231.452867,388.415195 250.439357,343.996301 C258.63914,324.811072 251.795388,298.712172 249.534652,292.3719 C247.275968,286.031629 254.96288,279.461176 263.246775,280.381902 C274.095025,281.590356 282.323529,287.945014 282.323529,287.945014" id="Fill-36" fill="#D19B07"></path>
                    <path d="M300.555862,251.215534 L338.709403,265.305322 C338.709403,265.305322 351.881435,418.03615 291.471489,415.979412 L251.501898,415.308961 C251.501898,415.308961 249.793038,345.619177 300.555862,251.215534" id="Fill-37" fill="#F7B500"></path>
                    <path d="M202.908469,396.489088 L201.196078,416 L266.909314,402.932963 C262.994984,384.341414 235.049353,398.786451 225.489712,397.867089 L202.908469,396.489088" id="Fill-38" fill="#9C6639"></path>
                    <path d="M509.66318,97.1958576 C509.66318,97.1958576 490.904635,76.4099404 461.114456,85.5003039 C416.631327,99.074066 428.031994,134.401682 444.976467,148.803338 C480.150813,178.698154 439.28339,206.848624 445.476115,239.379522 C454.679163,287.722792 497.250778,288.579518 514.806853,285.918723 C536.704262,282.596848 594.978488,266.782416 590.346902,213.339976 C588.563928,192.778538 559.304495,172.818455 551.040617,142.182242 C545.986093,123.439288 538.947492,96.1681976 509.66318,97.1958576" id="Fill-39" fill="#20120C"></path>
                    <path d="M499.303792,151.691065 C499.303792,151.691065 496.057755,121.201947 470.540992,119.597692 C451.202103,118.382097 445.463276,140.355845 446.274786,164.467221 C447.086295,188.582733 455.113994,204.013352 471.410764,199.562371 C488.583547,194.869511 498.508929,186.263178 501.886056,173.145911 C501.886056,173.145911 515.205212,171.152996 513.361629,156.909029 C511.324533,141.170376 499.303792,151.691065 499.303792,151.691065" id="Fill-40" fill="#E5AF9C"></path>
                    <path d="M459.181373,226.492723 C459.181373,226.492723 479.004446,221.870261 474.519522,196.231913 L499.928571,169.631068 C499.928571,169.631068 503.324861,216.937982 521.64951,220.457497 C521.64951,220.457497 513.801411,267.091077 486.482078,269.73691 C469.887653,271.343825 461.311039,238.697427 459.181373,226.492723" id="Fill-41" fill="#E5AF9C"></path>
                    <path d="M462.062836,153.475728 C462.062836,153.475728 459.084885,161.625808 455.952427,164.521204 C452.81997,167.4166 459.402364,169.530341 462.056486,169.630606 C464.710609,169.730871 462.062836,153.475728 462.062836,153.475728" id="Fill-42" fill="#D39784"></path>
                    <path d="M475.237568,197.814205 C475.237568,197.814205 486.626167,192.131752 490.592937,187.473238 C494.55766,182.814724 491.159911,198.037684 489.557238,201.192796 C486.685526,206.854933 480.635076,212.094491 473.784314,213.250485 C473.784314,213.250485 476.78293,206.542062 475.237568,197.814205" id="Fill-43" fill="#D39784"></path>
                    <path d="M459.577493,226.53692 C459.577493,226.53692 473.551359,262.739059 483.059884,262.308719 C489.401662,262.022511 512.560958,230.611771 522.090194,220.520388 C522.090194,220.520388 558.131874,222.28499 597.104193,245.379246 C641.948145,271.951229 667.182706,322.373138 661.10396,373.919285 C659.022482,391.583837 653.476015,407.825589 641.337164,416 L410.872968,416 C399.065497,409.806391 368.889237,382.664052 376.979043,336.0905 C376.979043,336.0905 389.838645,260.432928 459.577493,226.53692" id="Fill-44" fill="#FF6E67"></path>
                    <path d="M454.309966,152.927128 C454.38993,154.486964 453.184623,155.815642 451.618504,155.895285 C450.052385,155.974928 448.718356,154.774456 448.638393,153.214619 C448.560379,151.654783 449.763736,150.326105 451.329854,150.248405 C452.895973,150.168762 454.230002,151.369234 454.309966,152.927128" id="Fill-45" fill="#20120C"></path>
                    <path d="M479.459475,151.311597 C479.539463,152.871431 478.33378,154.200108 476.767172,154.279751 C475.200564,154.359394 473.866118,153.158923 473.78808,151.599088 C473.708091,150.039253 474.911824,148.710577 476.478432,148.632876 C478.04504,148.553233 479.379486,149.751762 479.459475,151.311597" id="Fill-46" fill="#20120C"></path>
                    <path d="M482.28606,137.361913 C479.989322,137.251206 477.705356,137.3683 475.423518,137.636552 C473.744069,137.834547 472.701064,139.827276 473.035252,141.364402 C473.424782,143.148491 475.07656,143.951118 476.760266,143.753122 C478.486545,143.54874 480.214952,143.52745 481.949744,143.61048 C485.970632,143.804218 486.315462,137.55565 482.28606,137.361913" id="Fill-47" fill="#20120C"></path>
                    <path d="M452.785114,138.128955 C451.049743,138.112742 449.305949,138.343769 447.627441,138.767318 C446.060554,139.162496 444.997007,140.970179 445.527728,142.463748 C446.085826,144.028245 447.690622,144.907768 449.36913,144.484219 C449.672399,144.409237 449.975667,144.334254 450.283148,144.273458 C450.428464,144.245086 450.57378,144.220768 450.719096,144.194422 C450.738051,144.194422 450.775959,144.190369 450.853882,144.180236 C451.534131,144.153891 452.199637,144.080935 452.886203,144.089042 C454.503636,144.103228 456.032615,142.638031 455.931526,141.061374 C455.826224,139.413788 454.518378,138.147194 452.785114,138.128955" id="Fill-48" fill="#20120C"></path>
                    <path d="M452.691176,178.42026 L471.131365,172.862136 C471.131365,172.862136 473.237946,181.944522 464.387872,184.523903 C455.821649,187.020942 452.691176,178.42026 452.691176,178.42026" id="Fill-49" fill="#FFFFFF"></path>
                    <path d="M590.607843,339.491594 C590.607843,339.491594 522.00495,365.796033 493.254902,384.497087 C493.254902,384.497087 493.863785,362.297607 506.639974,354.087691 C519.418233,345.877775 519.113792,349.982733 533.261002,335.386636 C547.408213,320.79054 551.057369,296.614138 564.748954,302.089486 C578.438467,307.562763 590.607843,339.491594 590.607843,339.491594" id="Fill-50" fill="#FF574F"></path>
                    <path d="M492.443627,416 L490.727317,396.613592 C490.727317,396.613592 478.328527,403.459631 468.760615,404.373127 C459.192703,405.286622 435.499352,403.67713 433.220588,416 L492.443627,416" id="Fill-51" fill="#E5AF9C"></path>
                    <path d="M393.468137,403.075728 L241.747699,403.075728 C238.169659,403.075728 235.269608,405.968637 235.269608,409.537864 C235.269608,413.107091 238.169659,416 241.747699,416 L393.468137,416 L393.468137,403.075728" id="Fill-59" fill="#FFFFFF"></path>
                    <path d="M454.474592,303.720388 L323.867472,303.720388 C318.223381,303.720388 313.341335,307.636569 312.13941,313.128272 L289.625,416 L444.801367,416 L466.202654,318.220952 C467.834133,310.767045 462.134283,303.720388 454.474592,303.720388" id="Fill-60" fill="#FFFFFF"></path>
                    <path d="M466.482843,316.64466 C466.482843,316.64466 429.696685,337.058197 422.060186,359.871513 C414.423686,382.686884 376.623322,386.949729 366.696078,416 L444.841618,416 L466.482843,316.64466" id="Fill-61" fill="#000000" opacity="0.0630347842"></path>
                    <path d="M292.058824,403.075728 L289.556209,416 L241.759804,416 C241.759804,416 248.326315,410.562651 256.644864,409.537864 C264.963412,408.513077 285.044454,410.597704 292.058824,403.075728" id="Fill-62" fill="#E2E2E2"></path>
                    <path d="M371.860582,363.622858 C370.299278,370.616624 375.071063,378.034951 382.078536,378.034951 C389.088053,378.034951 395.974954,374.169976 397.24198,367.115558 C398.69906,358.981959 394.387084,352.994175 387.377567,352.994175 C380.370094,352.994175 373.769295,355.079338 371.860582,363.622858" id="Fill-63" fill="#2D3637"></path>
                </g>
            </g>
        </g>
    </g>
</svg>