<?xml version="1.0" encoding="UTF-8"?>
<svg width="1107px" height="833px" viewBox="0 0 1107 833" version="1.1" xmlns="http://www.w3.org/2000/svg" xmlns:xlink="http://www.w3.org/1999/xlink">
    <!-- Generator: Sketch 53.2 (72643) - https://sketchapp.com -->
    <title>Group 49</title>
    <desc>Created with Sketch.</desc>
    <defs>
        <rect id="path-1" x="0" y="0" width="909" height="635" rx="15"></rect>
        <filter x="-25.4%" y="-29.1%" width="158.4%" height="183.6%" filterUnits="objectBoundingBox" id="filter-2">
            <feOffset dx="35" dy="81" in="SourceAlpha" result="shadowOffsetOuter1"></feOffset>
            <feGaussianBlur stdDeviation="75" in="shadowOffsetOuter1" result="shadowBlurOuter1"></feGaussianBlur>
            <feColorMatrix values="0 0 0 0 0.0952747139   0 0 0 0 0.129613208   0 0 0 0 0.200803895  0 0 0 0.136937281 0" type="matrix" in="shadowBlurOuter1"></feColorMatrix>
        </filter>
        <rect id="path-3" x="0" y="0" width="909" height="182" rx="15"></rect>
        <filter x="-25.4%" y="-101.4%" width="158.4%" height="391.8%" filterUnits="objectBoundingBox" id="filter-4">
            <feOffset dx="35" dy="81" in="SourceAlpha" result="shadowOffsetOuter1"></feOffset>
            <feGaussianBlur stdDeviation="75" in="shadowOffsetOuter1" result="shadowBlurOuter1"></feGaussianBlur>
            <feColorMatrix values="0 0 0 0 0.0952747139   0 0 0 0 0.129613208   0 0 0 0 0.200803895  0 0 0 0.136937281 0" type="matrix" in="shadowBlurOuter1"></feColorMatrix>
        </filter>
    </defs>
    <g id="Page-1" stroke="none" stroke-width="1" fill="none" fill-rule="evenodd">
        <g id="Landing-page" transform="translate(-756.000000, -2824.000000)">
            <g id="Group-52" transform="translate(190.000000, 2842.000000)">
                <g id="Group-49" transform="translate(630.000000, 0.000000)">
                    <g id="Rectangle">
                        <use fill="black" fill-opacity="1" filter="url(#filter-2)" xlink:href="#path-1"></use>
                        <use fill="#FF6E67" fill-rule="evenodd" xlink:href="#path-1"></use>
                    </g>
                    <g id="Rectangle">
                        <use fill="black" fill-opacity="1" filter="url(#filter-4)" xlink:href="#path-3"></use>
                        <use fill="#5D34F3" fill-rule="evenodd" xlink:href="#path-3"></use>
                    </g>
                    <text id="100%-on-The-Metrics" font-family="Futura-Bold, Futura" font-size="30" font-weight="bold" fill="#FFFFFF">
                        <tspan x="206" y="80">100% on The Metrics That Matter</tspan>
                    </text>
                    <g id="Group-51" transform="translate(0.000000, 173.000000)">
                        <g id="Group-48">
                            <rect id="Rectangle" fill="#FFFFFF" x="0" y="0" width="909" height="70"></rect>
                            <text id="Honest-Appraisal" font-family="FuturaBT-Medium, Futura" font-size="20" font-weight="400" fill="#303438">
                                <tspan x="40" y="42">Honest Appraisal</tspan>
                            </text>
                            <g id="close-cross" transform="translate(547.000000, 27.000000)" fill="#FD5151" fill-rule="nonzero">
                                <path d="M11.3122857,8.45061905 L16.3082619,3.45504762 C17.0987619,2.66454762 17.0987619,1.38307143 16.3082619,0.59297619 C15.5185714,-0.197119048 14.2362857,-0.197119048 13.4465952,0.59297619 L8.45061905,5.58935714 L3.45464286,0.59297619 C2.66495238,-0.197119048 1.38266667,-0.197119048 0.59297619,0.59297619 C-0.19752381,1.38347619 -0.19752381,2.66495238 0.59297619,3.45504762 L5.58854762,8.45061905 L0.59297619,13.4461905 C-0.19752381,14.2366905 -0.19752381,15.5181667 0.59297619,16.3082619 C0.987619048,16.7037143 1.50611905,16.9008333 2.02380952,16.9008333 C2.54109524,16.9008333 3.06,16.7037143 3.45464286,16.3082619 L8.45061905,11.3126905 L13.4465952,16.3086667 C13.8416429,16.704119 14.3597381,16.9012381 14.8774286,16.9012381 C15.395119,16.9012381 15.913619,16.704119 16.3082619,16.3086667 C17.0987619,15.5181667 17.0987619,14.2366905 16.3082619,13.4465952 L11.3122857,8.45061905 Z" id="Path"></path>
                            </g>
                            <g id="close-cross" transform="translate(696.000000, 27.000000)" fill="#FD5151" fill-rule="nonzero">
                                <path d="M11.3122857,8.45061905 L16.3082619,3.45504762 C17.0987619,2.66454762 17.0987619,1.38307143 16.3082619,0.59297619 C15.5185714,-0.197119048 14.2362857,-0.197119048 13.4465952,0.59297619 L8.45061905,5.58935714 L3.45464286,0.59297619 C2.66495238,-0.197119048 1.38266667,-0.197119048 0.59297619,0.59297619 C-0.19752381,1.38347619 -0.19752381,2.66495238 0.59297619,3.45504762 L5.58854762,8.45061905 L0.59297619,13.4461905 C-0.19752381,14.2366905 -0.19752381,15.5181667 0.59297619,16.3082619 C0.987619048,16.7037143 1.50611905,16.9008333 2.02380952,16.9008333 C2.54109524,16.9008333 3.06,16.7037143 3.45464286,16.3082619 L8.45061905,11.3126905 L13.4465952,16.3086667 C13.8416429,16.704119 14.3597381,16.9012381 14.8774286,16.9012381 C15.395119,16.9012381 15.913619,16.704119 16.3082619,16.3086667 C17.0987619,15.5181667 17.0987619,14.2366905 16.3082619,13.4465952 L11.3122857,8.45061905 Z" id="Path"></path>
                            </g>
                            <g id="check" transform="translate(415.000000, 27.000000)" fill="#78D94C" fill-rule="nonzero">
                                <path d="M19.3793596,3.51815878 L8.84743842,14.3517568 C8.06753695,15.1542061 6.80241379,15.1542061 6.0217734,14.3517568 L0.585123153,8.75858108 C-0.195073892,7.95613176 -0.195073892,6.65452703 0.585123153,5.85192568 C1.36546798,5.0491723 2.63049261,5.0491723 3.41049261,5.85162162 L7.43502463,9.99177365 L16.5535468,0.611351351 C17.3338916,-0.191402027 18.5990148,-0.190793919 19.379064,0.611351351 C20.1591133,1.4139527 20.1591133,2.71510135 19.3793596,3.51815878 Z" id="Path"></path>
                            </g>
                        </g>
                        <g id="Group-48" transform="translate(0.000000, 70.000000)">
                            <rect id="Rectangle" fill="#FFFFFF" x="0" y="0" width="909" height="70"></rect>
                            <text id="Cash-Equivalence-*No" font-family="FuturaBT-Medium, Futura" font-size="20" font-weight="400" fill="#303438">
                                <tspan x="40" y="42">Cash Equivalence</tspan>
                                <tspan x="201.005859" y="42" font-family="Futura-Bold, Futura" font-weight="bold"> </tspan>
                                <tspan x="207.265625" y="42" font-family="FuturaBT-Book, Futura" font-size="14" font-weight="300">*No store credit</tspan>
                            </text>
                            <g id="close-cross" transform="translate(547.000000, 27.000000)" fill="#FD5151" fill-rule="nonzero">
                                <path d="M11.3122857,8.45061905 L16.3082619,3.45504762 C17.0987619,2.66454762 17.0987619,1.38307143 16.3082619,0.59297619 C15.5185714,-0.197119048 14.2362857,-0.197119048 13.4465952,0.59297619 L8.45061905,5.58935714 L3.45464286,0.59297619 C2.66495238,-0.197119048 1.38266667,-0.197119048 0.59297619,0.59297619 C-0.19752381,1.38347619 -0.19752381,2.66495238 0.59297619,3.45504762 L5.58854762,8.45061905 L0.59297619,13.4461905 C-0.19752381,14.2366905 -0.19752381,15.5181667 0.59297619,16.3082619 C0.987619048,16.7037143 1.50611905,16.9008333 2.02380952,16.9008333 C2.54109524,16.9008333 3.06,16.7037143 3.45464286,16.3082619 L8.45061905,11.3126905 L13.4465952,16.3086667 C13.8416429,16.704119 14.3597381,16.9012381 14.8774286,16.9012381 C15.395119,16.9012381 15.913619,16.704119 16.3082619,16.3086667 C17.0987619,15.5181667 17.0987619,14.2366905 16.3082619,13.4465952 L11.3122857,8.45061905 Z" id="Path"></path>
                            </g>
                            <g id="check" transform="translate(415.000000, 27.000000)" fill="#78D94C" fill-rule="nonzero">
                                <path d="M19.3793596,3.51815878 L8.84743842,14.3517568 C8.06753695,15.1542061 6.80241379,15.1542061 6.0217734,14.3517568 L0.585123153,8.75858108 C-0.195073892,7.95613176 -0.195073892,6.65452703 0.585123153,5.85192568 C1.36546798,5.0491723 2.63049261,5.0491723 3.41049261,5.85162162 L7.43502463,9.99177365 L16.5535468,0.611351351 C17.3338916,-0.191402027 18.5990148,-0.190793919 19.379064,0.611351351 C20.1591133,1.4139527 20.1591133,2.71510135 19.3793596,3.51815878 Z" id="Path"></path>
                            </g>
                            <g id="check" transform="translate(697.000000, 27.000000)" fill="#78D94C" fill-rule="nonzero">
                                <path d="M19.3793596,3.51815878 L8.84743842,14.3517568 C8.06753695,15.1542061 6.80241379,15.1542061 6.0217734,14.3517568 L0.585123153,8.75858108 C-0.195073892,7.95613176 -0.195073892,6.65452703 0.585123153,5.85192568 C1.36546798,5.0491723 2.63049261,5.0491723 3.41049261,5.85162162 L7.43502463,9.99177365 L16.5535468,0.611351351 C17.3338916,-0.191402027 18.5990148,-0.190793919 19.379064,0.611351351 C20.1591133,1.4139527 20.1591133,2.71510135 19.3793596,3.51815878 Z" id="Path"></path>
                            </g>
                        </g>
                        <g id="Group-48" transform="translate(0.000000, 140.000000)">
                            <rect id="Rectangle" fill="#FFFFFF" x="0" y="0" width="909" height="70"></rect>
                            <text id="Meet-at-your-choice" font-family="FuturaBT-Medium, Futura" font-size="20" font-weight="400" fill="#303438">
                                <tspan x="40" y="42">Meet at your choice of location</tspan>
                            </text>
                            <g id="close-cross" transform="translate(547.000000, 27.000000)" fill="#FD5151" fill-rule="nonzero">
                                <path d="M11.3122857,8.45061905 L16.3082619,3.45504762 C17.0987619,2.66454762 17.0987619,1.38307143 16.3082619,0.59297619 C15.5185714,-0.197119048 14.2362857,-0.197119048 13.4465952,0.59297619 L8.45061905,5.58935714 L3.45464286,0.59297619 C2.66495238,-0.197119048 1.38266667,-0.197119048 0.59297619,0.59297619 C-0.19752381,1.38347619 -0.19752381,2.66495238 0.59297619,3.45504762 L5.58854762,8.45061905 L0.59297619,13.4461905 C-0.19752381,14.2366905 -0.19752381,15.5181667 0.59297619,16.3082619 C0.987619048,16.7037143 1.50611905,16.9008333 2.02380952,16.9008333 C2.54109524,16.9008333 3.06,16.7037143 3.45464286,16.3082619 L8.45061905,11.3126905 L13.4465952,16.3086667 C13.8416429,16.704119 14.3597381,16.9012381 14.8774286,16.9012381 C15.395119,16.9012381 15.913619,16.704119 16.3082619,16.3086667 C17.0987619,15.5181667 17.0987619,14.2366905 16.3082619,13.4465952 L11.3122857,8.45061905 Z" id="Path"></path>
                            </g>
                            <g id="close-cross" transform="translate(696.000000, 27.000000)" fill="#FD5151" fill-rule="nonzero">
                                <path d="M11.3122857,8.45061905 L16.3082619,3.45504762 C17.0987619,2.66454762 17.0987619,1.38307143 16.3082619,0.59297619 C15.5185714,-0.197119048 14.2362857,-0.197119048 13.4465952,0.59297619 L8.45061905,5.58935714 L3.45464286,0.59297619 C2.66495238,-0.197119048 1.38266667,-0.197119048 0.59297619,0.59297619 C-0.19752381,1.38347619 -0.19752381,2.66495238 0.59297619,3.45504762 L5.58854762,8.45061905 L0.59297619,13.4461905 C-0.19752381,14.2366905 -0.19752381,15.5181667 0.59297619,16.3082619 C0.987619048,16.7037143 1.50611905,16.9008333 2.02380952,16.9008333 C2.54109524,16.9008333 3.06,16.7037143 3.45464286,16.3082619 L8.45061905,11.3126905 L13.4465952,16.3086667 C13.8416429,16.704119 14.3597381,16.9012381 14.8774286,16.9012381 C15.395119,16.9012381 15.913619,16.704119 16.3082619,16.3086667 C17.0987619,15.5181667 17.0987619,14.2366905 16.3082619,13.4465952 L11.3122857,8.45061905 Z" id="Path"></path>
                            </g>
                            <g id="check" transform="translate(415.000000, 27.000000)" fill="#78D94C" fill-rule="nonzero">
                                <path d="M19.3793596,3.51815878 L8.84743842,14.3517568 C8.06753695,15.1542061 6.80241379,15.1542061 6.0217734,14.3517568 L0.585123153,8.75858108 C-0.195073892,7.95613176 -0.195073892,6.65452703 0.585123153,5.85192568 C1.36546798,5.0491723 2.63049261,5.0491723 3.41049261,5.85162162 L7.43502463,9.99177365 L16.5535468,0.611351351 C17.3338916,-0.191402027 18.5990148,-0.190793919 19.379064,0.611351351 C20.1591133,1.4139527 20.1591133,2.71510135 19.3793596,3.51815878 Z" id="Path"></path>
                            </g>
                        </g>
                        <g id="Group-48" transform="translate(0.000000, 210.000000)">
                            <rect id="Rectangle" fill="#FFFFFF" x="0" y="0" width="909" height="70"></rect>
                            <text id="Sell-at-your-discret" font-family="FuturaBT-Medium, Futura" font-size="20" font-weight="400" fill="#303438">
                                <tspan x="40" y="42">Sell at your discretion</tspan>
                            </text>
                            <g id="close-cross" transform="translate(547.000000, 27.000000)" fill="#FD5151" fill-rule="nonzero">
                                <path d="M11.3122857,8.45061905 L16.3082619,3.45504762 C17.0987619,2.66454762 17.0987619,1.38307143 16.3082619,0.59297619 C15.5185714,-0.197119048 14.2362857,-0.197119048 13.4465952,0.59297619 L8.45061905,5.58935714 L3.45464286,0.59297619 C2.66495238,-0.197119048 1.38266667,-0.197119048 0.59297619,0.59297619 C-0.19752381,1.38347619 -0.19752381,2.66495238 0.59297619,3.45504762 L5.58854762,8.45061905 L0.59297619,13.4461905 C-0.19752381,14.2366905 -0.19752381,15.5181667 0.59297619,16.3082619 C0.987619048,16.7037143 1.50611905,16.9008333 2.02380952,16.9008333 C2.54109524,16.9008333 3.06,16.7037143 3.45464286,16.3082619 L8.45061905,11.3126905 L13.4465952,16.3086667 C13.8416429,16.704119 14.3597381,16.9012381 14.8774286,16.9012381 C15.395119,16.9012381 15.913619,16.704119 16.3082619,16.3086667 C17.0987619,15.5181667 17.0987619,14.2366905 16.3082619,13.4465952 L11.3122857,8.45061905 Z" id="Path"></path>
                            </g>
                            <g id="check" transform="translate(415.000000, 27.000000)" fill="#78D94C" fill-rule="nonzero">
                                <path d="M19.3793596,3.51815878 L8.84743842,14.3517568 C8.06753695,15.1542061 6.80241379,15.1542061 6.0217734,14.3517568 L0.585123153,8.75858108 C-0.195073892,7.95613176 -0.195073892,6.65452703 0.585123153,5.85192568 C1.36546798,5.0491723 2.63049261,5.0491723 3.41049261,5.85162162 L7.43502463,9.99177365 L16.5535468,0.611351351 C17.3338916,-0.191402027 18.5990148,-0.190793919 19.379064,0.611351351 C20.1591133,1.4139527 20.1591133,2.71510135 19.3793596,3.51815878 Z" id="Path"></path>
                            </g>
                            <g id="check" transform="translate(697.000000, 27.000000)" fill="#78D94C" fill-rule="nonzero">
                                <path d="M19.3793596,3.51815878 L8.84743842,14.3517568 C8.06753695,15.1542061 6.80241379,15.1542061 6.0217734,14.3517568 L0.585123153,8.75858108 C-0.195073892,7.95613176 -0.195073892,6.65452703 0.585123153,5.85192568 C1.36546798,5.0491723 2.63049261,5.0491723 3.41049261,5.85162162 L7.43502463,9.99177365 L16.5535468,0.611351351 C17.3338916,-0.191402027 18.5990148,-0.190793919 19.379064,0.611351351 C20.1591133,1.4139527 20.1591133,2.71510135 19.3793596,3.51815878 Z" id="Path"></path>
                            </g>
                        </g>
                        <g id="Group-48" transform="translate(0.000000, 280.000000)">
                            <rect id="Rectangle" fill="#FFFFFF" x="0" y="0" width="909" height="70"></rect>
                            <text id="Same-day-value" font-family="FuturaBT-Medium, Futura" font-size="20" font-weight="400" fill="#303438">
                                <tspan x="40" y="42">Same day value</tspan>
                            </text>
                            <g id="close-cross" transform="translate(696.000000, 27.000000)" fill="#FD5151" fill-rule="nonzero">
                                <path d="M11.3122857,8.45061905 L16.3082619,3.45504762 C17.0987619,2.66454762 17.0987619,1.38307143 16.3082619,0.59297619 C15.5185714,-0.197119048 14.2362857,-0.197119048 13.4465952,0.59297619 L8.45061905,5.58935714 L3.45464286,0.59297619 C2.66495238,-0.197119048 1.38266667,-0.197119048 0.59297619,0.59297619 C-0.19752381,1.38347619 -0.19752381,2.66495238 0.59297619,3.45504762 L5.58854762,8.45061905 L0.59297619,13.4461905 C-0.19752381,14.2366905 -0.19752381,15.5181667 0.59297619,16.3082619 C0.987619048,16.7037143 1.50611905,16.9008333 2.02380952,16.9008333 C2.54109524,16.9008333 3.06,16.7037143 3.45464286,16.3082619 L8.45061905,11.3126905 L13.4465952,16.3086667 C13.8416429,16.704119 14.3597381,16.9012381 14.8774286,16.9012381 C15.395119,16.9012381 15.913619,16.704119 16.3082619,16.3086667 C17.0987619,15.5181667 17.0987619,14.2366905 16.3082619,13.4465952 L11.3122857,8.45061905 Z" id="Path"></path>
                            </g>
                            <g id="check" transform="translate(415.000000, 27.000000)" fill="#78D94C" fill-rule="nonzero">
                                <path d="M19.3793596,3.51815878 L8.84743842,14.3517568 C8.06753695,15.1542061 6.80241379,15.1542061 6.0217734,14.3517568 L0.585123153,8.75858108 C-0.195073892,7.95613176 -0.195073892,6.65452703 0.585123153,5.85192568 C1.36546798,5.0491723 2.63049261,5.0491723 3.41049261,5.85162162 L7.43502463,9.99177365 L16.5535468,0.611351351 C17.3338916,-0.191402027 18.5990148,-0.190793919 19.379064,0.611351351 C20.1591133,1.4139527 20.1591133,2.71510135 19.3793596,3.51815878 Z" id="Path"></path>
                            </g>
                            <g id="check" transform="translate(548.000000, 27.000000)" fill="#78D94C" fill-rule="nonzero">
                                <path d="M19.3793596,3.51815878 L8.84743842,14.3517568 C8.06753695,15.1542061 6.80241379,15.1542061 6.0217734,14.3517568 L0.585123153,8.75858108 C-0.195073892,7.95613176 -0.195073892,6.65452703 0.585123153,5.85192568 C1.36546798,5.0491723 2.63049261,5.0491723 3.41049261,5.85162162 L7.43502463,9.99177365 L16.5535468,0.611351351 C17.3338916,-0.191402027 18.5990148,-0.190793919 19.379064,0.611351351 C20.1591133,1.4139527 20.1591133,2.71510135 19.3793596,3.51815878 Z" id="Path"></path>
                            </g>
                        </g>
                        <g id="Group-48" transform="translate(0.000000, 350.000000)">
                            <rect id="Rectangle" fill="#FFFFFF" x="0" y="0" width="909" height="70"></rect>
                            <text id="Trained-professional" font-family="FuturaBT-Medium, Futura" font-size="20" font-weight="400" fill="#303438">
                                <tspan x="40" y="42">Trained professionals</tspan>
                            </text>
                            <g id="close-cross" transform="translate(696.000000, 27.000000)" fill="#FD5151" fill-rule="nonzero">
                                <path d="M11.3122857,8.45061905 L16.3082619,3.45504762 C17.0987619,2.66454762 17.0987619,1.38307143 16.3082619,0.59297619 C15.5185714,-0.197119048 14.2362857,-0.197119048 13.4465952,0.59297619 L8.45061905,5.58935714 L3.45464286,0.59297619 C2.66495238,-0.197119048 1.38266667,-0.197119048 0.59297619,0.59297619 C-0.19752381,1.38347619 -0.19752381,2.66495238 0.59297619,3.45504762 L5.58854762,8.45061905 L0.59297619,13.4461905 C-0.19752381,14.2366905 -0.19752381,15.5181667 0.59297619,16.3082619 C0.987619048,16.7037143 1.50611905,16.9008333 2.02380952,16.9008333 C2.54109524,16.9008333 3.06,16.7037143 3.45464286,16.3082619 L8.45061905,11.3126905 L13.4465952,16.3086667 C13.8416429,16.704119 14.3597381,16.9012381 14.8774286,16.9012381 C15.395119,16.9012381 15.913619,16.704119 16.3082619,16.3086667 C17.0987619,15.5181667 17.0987619,14.2366905 16.3082619,13.4465952 L11.3122857,8.45061905 Z" id="Path"></path>
                            </g>
                            <g id="check" transform="translate(415.000000, 27.000000)" fill="#78D94C" fill-rule="nonzero">
                                <path d="M19.3793596,3.51815878 L8.84743842,14.3517568 C8.06753695,15.1542061 6.80241379,15.1542061 6.0217734,14.3517568 L0.585123153,8.75858108 C-0.195073892,7.95613176 -0.195073892,6.65452703 0.585123153,5.85192568 C1.36546798,5.0491723 2.63049261,5.0491723 3.41049261,5.85162162 L7.43502463,9.99177365 L16.5535468,0.611351351 C17.3338916,-0.191402027 18.5990148,-0.190793919 19.379064,0.611351351 C20.1591133,1.4139527 20.1591133,2.71510135 19.3793596,3.51815878 Z" id="Path"></path>
                            </g>
                            <g id="check" transform="translate(548.000000, 27.000000)" fill="#78D94C" fill-rule="nonzero">
                                <path d="M19.3793596,3.51815878 L8.84743842,14.3517568 C8.06753695,15.1542061 6.80241379,15.1542061 6.0217734,14.3517568 L0.585123153,8.75858108 C-0.195073892,7.95613176 -0.195073892,6.65452703 0.585123153,5.85192568 C1.36546798,5.0491723 2.63049261,5.0491723 3.41049261,5.85162162 L7.43502463,9.99177365 L16.5535468,0.611351351 C17.3338916,-0.191402027 18.5990148,-0.190793919 19.379064,0.611351351 C20.1591133,1.4139527 20.1591133,2.71510135 19.3793596,3.51815878 Z" id="Path"></path>
                            </g>
                        </g>
                    </g>
                    <g id="Group-50" transform="translate(415.000000, 128.000000)" fill="#FFFFFF" font-family="FuturaBT-Medium, Futura" font-size="18" font-weight="400">
                        <text id="Adulis">
                            <tspan x="0" y="17">Adulis</tspan>
                        </text>
                        <text id="Carriers">
                            <tspan x="132" y="17">Carriers</tspan>
                        </text>
                        <text id="Online-Buybacks">
                            <tspan x="281" y="17">Online Buybacks</tspan>
                        </text>
                    </g>
                </g>
            </g>
        </g>
    </g>
</svg>