<?xml version="1.0" encoding="UTF-8"?>
<svg width="69px" height="69px" viewBox="0 0 69 69" version="1.1" xmlns="http://www.w3.org/2000/svg" xmlns:xlink="http://www.w3.org/1999/xlink">
    <!-- Generator: Sketch 53.2 (72643) - https://sketchapp.com -->
    <title>Group 57</title>
    <desc>Created with Sketch.</desc>
    <g id="Page-1" stroke="none" stroke-width="1" fill="none" fill-rule="evenodd">
        <g id="Landing-page" transform="translate(-383.000000, -3864.000000)">
            <g id="Group-62" transform="translate(333.000000, 3759.000000)">
                <g id="Group-57" transform="translate(50.000000, 105.000000)">
                    <rect id="Rectangle" fill="#F7B500" x="0" y="0" width="69" height="69" rx="15"></rect>
                    <g id="idea" transform="translate(23.000000, 15.000000)" fill="#FFFFFF" fill-rule="nonzero">
                        <path d="M17.6991461,0 L5.30085393,0 C2.37811878,0 0,2.39584351 0,5.34036255 L0,33.6596375 C0,36.604454 2.37811878,39 5.30085393,39 L17.6991461,39 C20.6221765,39 23,36.604454 23,33.6596375 L23,5.34036255 C23,2.39584351 20.6221765,0 17.6991461,0 Z M5.30085393,36.652359 C3.66286994,36.652359 2.33027283,35.3098298 2.33027283,33.6596375 L2.33027283,32.8634033 L20.6697271,32.8634033 L20.6697271,33.6596375 C20.6697271,35.3098298 19.33713,36.652359 17.6991461,36.652359 L5.30085393,36.652359 Z M17.6991461,2.34764095 C19.33713,2.34764095 20.6697271,3.69017025 20.6697271,5.34036255 L20.6697271,6.13659668 L2.33027283,6.13659668 L2.33027283,5.34036255 C2.33027283,3.69017025 3.66286994,2.34764095 5.30085393,2.34764095 L17.6991461,2.34764095 Z M20.6697271,8.48423763 L20.6697271,30.5157624 L2.33027283,30.5157624 L2.33027283,8.48423763 L20.6697271,8.48423763 Z" id="Shape"></path>
                        <path d="M7.48963556,21.3755725 L7.48963556,24.0469504 C7.48963556,26.147734 9.17646232,27.8571429 11.2501464,27.8571429 C13.3238304,27.8571429 15.0106572,26.1480307 15.0106572,24.0469504 L15.0106572,21.3755725 C16.266406,20.2750349 17,18.6697751 17,16.9686744 C17,13.7563744 14.4205607,11.1428571 11.2501464,11.1428571 C8.07943926,11.1428571 5.5,13.7563744 5.5,16.9686744 C5.5,18.6700718 6.23388674,20.2750349 7.48963556,21.3755725 L7.48963556,21.3755725 Z M11.2501464,13.483688 C13.1466551,13.483688 14.6896916,15.0471102 14.6896916,16.9686744 C14.6896916,18.1146103 14.1326873,19.1878497 13.1993684,19.8400421 C12.8868955,20.0584286 12.700056,20.4186477 12.700056,20.8034947 L12.700056,21.6058279 L9.79994393,21.6058279 L9.79994393,20.8034947 C9.79994393,20.4186477 9.61339731,20.0584286 9.30063151,19.8400421 C8.3676055,19.1881464 7.8106012,18.1146103 7.8106012,16.9686744 C7.8106012,15.0471102 9.35334485,13.483688 11.2501464,13.483688 L11.2501464,13.483688 Z M12.700056,24.0469504 C12.700056,24.8569983 12.049632,25.5163121 11.2501464,25.5163121 C10.4506608,25.5163121 9.79994393,24.8569983 9.79994393,24.0469504 L9.79994393,23.9466587 L12.7003488,23.9466587 L12.7003488,24.0469504 L12.700056,24.0469504 Z" id="Shape"></path>
                    </g>
                </g>
            </g>
        </g>
    </g>
</svg>