<?xml version="1.0" encoding="UTF-8"?>
<svg width="65px" height="65px" viewBox="0 0 65 65" version="1.1" xmlns="http://www.w3.org/2000/svg" xmlns:xlink="http://www.w3.org/1999/xlink">
    <!-- Generator: Sketch 53.2 (72643) - https://sketchapp.com -->
    <title>Group 24</title>
    <desc>Created with Sketch.</desc>
    <g id="Page-1" stroke="none" stroke-width="1" fill="none" fill-rule="evenodd">
        <g id="Landing-page" transform="translate(-972.000000, -2413.000000)" fill="#FA6400">
            <g id="Group-25" transform="translate(190.000000, 2074.000000)">
                <g id="Group-13" transform="translate(782.000000, 0.000000)">
                    <g id="Group-12" transform="translate(0.000000, 339.000000)">
                        <g id="Group-24">
                            <rect id="Rectangle" opacity="0.15" x="0" y="0" width="65" height="65" rx="10"></rect>
                            <g id="emoji" transform="translate(11.000000, 11.000000)" fill-rule="nonzero">
                                <path d="M37.5371274,6.43902439 C33.5783198,2.43252033 28.0455285,0 21.9880759,0 C15.9306233,0 10.397832,2.4802168 6.43902439,6.43902439 C2.43252033,10.397832 0,15.9306233 0,21.9880759 C0,28.0455285 2.4802168,33.5783198 6.43902439,37.5371274 C10.397832,41.495935 15.9306233,43.9761518 21.9880759,43.9761518 C28.0455285,43.9761518 33.5783198,41.495935 37.5371274,37.5371274 C41.495935,33.5783198 43.9761518,28.0455285 43.9761518,21.9880759 C43.9761518,15.9306233 41.5436314,10.397832 37.5371274,6.43902439 Z M35.8200542,35.8200542 C32.2905149,39.3495935 27.3777778,41.5436314 21.9880759,41.5436314 C16.598374,41.5436314 11.6856369,39.3495935 8.15609756,35.8200542 C4.62655827,32.2905149 2.43252033,27.3777778 2.43252033,21.9880759 C2.43252033,16.598374 4.62655827,11.6856369 8.15609756,8.15609756 C11.6856369,4.62655827 16.598374,2.43252033 21.9880759,2.43252033 C27.3777778,2.43252033 32.2905149,4.62655827 35.8200542,8.15609756 C39.3495935,11.6856369 41.5436314,16.598374 41.5436314,21.9880759 C41.5436314,27.3777778 39.39729,32.2905149 35.8200542,35.8200542 Z" id="Shape"></path>
                                <path d="M18.5062331,10.2547425 C17.7430894,9.49159892 16.6937669,9.01463415 15.5490515,9.01463415 C14.404336,9.01463415 13.3550136,9.49159892 12.5918699,10.2547425 C11.8287263,11.0178862 11.3517615,12.0672087 11.3517615,13.2119241 C11.3517615,14.3566396 11.8287263,15.4059621 12.5918699,16.1691057 C13.3550136,16.9322493 14.404336,17.4092141 15.5490515,17.4092141 C16.6937669,17.4092141 17.7430894,16.9322493 18.5062331,16.1691057 C19.2693767,15.4059621 19.7463415,14.3566396 19.7463415,13.2119241 C19.7463415,12.0672087 19.2693767,11.0178862 18.5062331,10.2547425 Z M16.7891599,14.404336 C16.4552846,14.7382114 16.0260163,14.9289973 15.5490515,14.9289973 C15.0720867,14.9289973 14.595122,14.7382114 14.3089431,14.404336 C13.9750678,14.0704607 13.7842818,13.6411924 13.7842818,13.1642276 C13.7842818,12.6872629 13.9750678,12.2579946 14.3089431,11.9241192 C14.6428184,11.5902439 15.0720867,11.399458 15.5490515,11.399458 C16.0260163,11.399458 16.502981,11.5902439 16.7891599,11.9241192 C17.1230352,12.2579946 17.3138211,12.6872629 17.3138211,13.1642276 C17.3138211,13.6411924 17.1230352,14.1181572 16.7891599,14.404336 Z" id="Shape"></path>
                                <path d="M31.3842818,10.2547425 C30.6211382,9.49159892 29.5718157,9.01463415 28.4271003,9.01463415 C27.2823848,9.01463415 26.2330623,9.49159892 25.4699187,10.2547425 C24.7067751,11.0178862 24.2298103,12.0672087 24.2298103,13.2119241 C24.2298103,14.3566396 24.7067751,15.4059621 25.4699187,16.1691057 C26.1853659,16.9322493 27.2346883,17.4092141 28.4271003,17.4092141 C29.5718157,17.4092141 30.6211382,16.9322493 31.3842818,16.1691057 C32.1474255,15.4059621 32.6243902,14.3566396 32.6243902,13.2119241 C32.6243902,12.0672087 32.1474255,11.0178862 31.3842818,10.2547425 Z M29.6195122,14.404336 C29.2856369,14.7382114 28.8563686,14.9289973 28.3794038,14.9289973 C27.902439,14.9289973 27.4254743,14.7382114 27.1392954,14.404336 C26.8054201,14.0704607 26.6146341,13.6411924 26.6146341,13.1642276 C26.6146341,12.6872629 26.8054201,12.2579946 27.1392954,11.9241192 C27.4731707,11.5902439 27.902439,11.399458 28.3794038,11.399458 C28.8563686,11.399458 29.3333333,11.5902439 29.6195122,11.9241192 C29.9533875,12.2579946 30.1441734,12.6872629 30.1441734,13.1642276 C30.1441734,13.6411924 29.9533875,14.1181572 29.6195122,14.404336 Z" id="Shape"></path>
                                <path d="M34.9615176,20.8433604 L21.9880759,20.795664 L9.01463415,20.795664 C8.34688347,20.795664 7.82222222,21.3203252 7.82222222,21.9880759 C7.82222222,25.899187 9.39620596,29.4764228 11.9718157,32.004336 C14.5474255,34.5799458 18.0769648,36.1539295 21.9880759,36.1539295 C25.899187,36.1539295 29.4287263,34.5799458 32.004336,32.004336 C34.5799458,29.4287263 36.1539295,25.899187 36.1539295,21.9880759 C36.1539295,21.3680217 35.6292683,20.8433604 34.9615176,20.8433604 Z M30.2872629,30.3349593 C28.1886179,32.4336043 25.2314363,33.7691057 21.9880759,33.7691057 C18.7447154,33.7691057 15.7875339,32.4336043 13.6411924,30.3349593 C11.7810298,28.4747967 10.5409214,25.9945799 10.2547425,23.2281843 L21.9880759,23.2281843 L33.7214092,23.2758808 C33.3875339,25.9945799 32.1474255,28.4747967 30.2872629,30.3349593 Z" id="Shape"></path>
                            </g>
                        </g>
                    </g>
                </g>
            </g>
        </g>
    </g>
</svg>