<?xml version="1.0" encoding="UTF-8"?>
<svg width="65px" height="65px" viewBox="0 0 65 65" version="1.1" xmlns="http://www.w3.org/2000/svg" xmlns:xlink="http://www.w3.org/1999/xlink">
    <!-- Generator: Sketch 53.2 (72643) - https://sketchapp.com -->
    <title>Group 41</title>
    <desc>Created with Sketch.</desc>
    <g id="Page-1" stroke="none" stroke-width="1" fill="none" fill-rule="evenodd">
        <g id="Landing-page" transform="translate(-1324.000000, -2074.000000)" fill="#FFCD40">
            <g id="Group-25" transform="translate(190.000000, 2074.000000)">
                <g id="Group-13" transform="translate(782.000000, 0.000000)">
                    <g id="Group-12" transform="translate(352.000000, 0.000000)">
                        <g id="Group-41">
                            <rect id="Rectangle" opacity="0.276953125" x="0" y="0" width="65" height="65" rx="11"></rect>
                            <g id="diamond" transform="translate(7.000000, 7.000000)" fill-rule="nonzero">
                                <path d="M44.4833679,21.452591 L35.5212479,12.4904709 C35.2414856,12.2110977 34.8516082,12.0527344 34.4648438,12.0527344 L16.5351562,12.0527344 C16.5320435,12.0527344 16.5289307,12.0531234 16.5254288,12.0531234 C16.1402206,12.0554581 15.7542343,12.2153778 15.4787521,12.4904709 L6.51390836,21.4549255 C5.93103793,22.0377961 5.93376155,22.9883651 6.51390836,23.568512 L24.4435959,41.4981995 C24.4443741,41.4989777 24.4451523,41.4997559 24.4463196,41.500534 C25.0268555,42.0787354 25.9711991,42.0806808 26.5536804,41.500534 C26.5548477,41.4997559 26.5556259,41.4989777 26.5564041,41.4981995 L44.4833679,23.5708465 C45.0681839,22.9891434 45.0693512,22.0350724 44.4833679,21.452591 Z M15.8822479,16.3129806 L17.4503174,21.0175781 L11.1776505,21.0175781 L15.8822479,16.3129806 Z M29.4034424,24.0058594 L25.5,35.7165756 L21.5965576,24.0058594 L29.4034424,24.0058594 Z M22.3152237,21.0175781 L25.5,16.2406082 L28.6847763,21.0175781 L22.3152237,21.0175781 Z M28.2917862,15.0410156 L32.3917236,15.0410156 L31.0252075,19.140953 L28.2917862,15.0410156 Z M19.9747925,19.140953 L18.6082764,15.0410156 L22.7082138,15.0410156 L19.9747925,19.140953 Z M18.4464111,24.0058594 L22.080986,34.909195 L11.1776505,24.0058594 L18.4464111,24.0058594 Z M32.5535889,24.0058594 L39.8223495,24.0058594 L28.919014,34.909195 L32.5535889,24.0058594 Z M33.5496826,21.0175781 L35.1177521,16.3129806 L39.8223495,21.0175781 L33.5496826,21.0175781 Z" id="Shape"></path>
                                <path d="M26.9941406,4.58203125 L26.9941406,1.49414063 C26.9941406,0.668861414 26.3252792,0 25.5,0 C24.6747208,0 24.0058594,0.668861414 24.0058594,1.49414063 L24.0058594,4.58203125 C24.0058594,5.40731046 24.6747208,6.07617188 25.5,6.07617188 C26.3252792,6.07617188 26.9941406,5.40731046 26.9941406,4.58203125 Z" id="Path"></path>
                                <path d="M25.5,44.9238281 C24.6747208,44.9238281 24.0058594,45.5926895 24.0058594,46.4179688 L24.0058594,49.5058594 C24.0058594,50.3311386 24.6747208,51 25.5,51 C26.3252792,51 26.9941406,50.3311386 26.9941406,49.5058594 L26.9941406,46.4179688 C26.9941406,45.5926895 26.3252792,44.9238281 25.5,44.9238281 Z" id="Path"></path>
                                <path d="M11.7651901,11.7651901 C12.3488388,11.1819305 12.3488388,10.2356414 11.7651901,9.65238192 L9.65238192,7.53918457 C9.06873324,6.95553589 8.12283325,6.95553589 7.53918457,7.53918457 C6.95553589,8.12283325 6.95553589,9.06873324 7.53918457,9.65238192 L9.65238192,11.7651901 C10.2356414,12.3488388 11.1819305,12.3488388 11.7651901,11.7651901 Z" id="Path"></path>
                                <path d="M41.3480072,39.2348099 C40.7643586,38.6511612 39.8184586,38.6511612 39.2348099,39.2348099 C38.6511612,39.8180695 38.6511612,40.7643586 39.2348099,41.3476181 L41.3480072,43.4608154 C41.9312668,44.044075 42.8771667,44.0444641 43.4608154,43.4608154 C44.0444641,42.8771667 44.0444641,41.9312668 43.4608154,41.3476181 L41.3480072,39.2348099 Z" id="Path"></path>
                                <path d="M4.58203125,26.9941406 L1.49414063,26.9941406 C0.668861414,26.9941406 0,27.663002 0,28.4882812 C0,29.3135605 0.668861414,29.9824219 1.49414063,29.9824219 L4.58203125,29.9824219 C5.40731046,29.9824219 6.07617188,29.3135605 6.07617188,28.4882812 C6.07617188,27.663002 5.40731046,26.9941406 4.58203125,26.9941406 Z" id="Path"></path>
                                <path d="M49.5058594,26.9941406 L46.4179688,26.9941406 C45.5926895,26.9941406 44.9238281,27.663002 44.9238281,28.4882812 C44.9238281,29.3135605 45.5926895,29.9824219 46.4179688,29.9824219 L49.5058594,29.9824219 C50.3311386,29.9824219 51,29.3135605 51,28.4882812 C51,27.663002 50.3311386,26.9941406 49.5058594,26.9941406 Z" id="Path"></path>
                                <path d="M9.65238192,39.2348099 L7.53918457,41.3476181 C6.95553589,41.9312668 6.95553589,42.8771667 7.53918457,43.4608154 C8.12283325,44.0444641 9.06873324,44.0444641 9.65238192,43.4608154 L11.7651901,41.3476181 C12.3488388,40.7643586 12.3488388,39.8180695 11.7651901,39.2348099 C11.1819305,38.6511612 10.2356414,38.6511612 9.65238192,39.2348099 Z" id="Path"></path>
                                <path d="M41.3480072,11.7651901 L43.4608154,9.65238192 C44.0444641,9.06873324 44.0444641,8.12283325 43.4608154,7.53918457 C42.8775558,6.95592496 41.9312668,6.95553589 41.3480072,7.53918457 L39.2348099,9.65238192 C38.6515503,10.2356414 38.6515503,11.1819305 39.2348099,11.7651901 C39.8180695,12.3488388 40.7643586,12.3488388 41.3480072,11.7651901 Z" id="Path"></path>
                            </g>
                        </g>
                    </g>
                </g>
            </g>
        </g>
    </g>
</svg>