<?xml version="1.0" encoding="UTF-8"?>
<svg width="69px" height="69px" viewBox="0 0 69 69" version="1.1" xmlns="http://www.w3.org/2000/svg" xmlns:xlink="http://www.w3.org/1999/xlink">
    <!-- Generator: Sketch 53.2 (72643) - https://sketchapp.com -->
    <title>Group 58</title>
    <desc>Created with Sketch.</desc>
    <g id="Page-1" stroke="none" stroke-width="1" fill="none" fill-rule="evenodd">
        <g id="Landing-page" transform="translate(-815.000000, -3864.000000)">
            <g id="Group-61" transform="translate(765.000000, 3759.000000)">
                <g id="Group-58" transform="translate(50.000000, 105.000000)">
                    <rect id="Rectangle" fill="#FF6E67" x="0" y="0" width="69" height="69" rx="15"></rect>
                    <g id="calendar" transform="translate(15.000000, 15.000000)" fill="#FFFFFF" fill-rule="nonzero">
                        <circle id="Oval" cx="29.4023438" cy="15.9960937" r="1.5234375"></circle>
                        <path d="M32.90625,3.046875 L30.9257812,3.046875 L30.9257812,1.5234375 C30.9257812,0.682042969 30.2437383,0 29.4023437,0 C28.5609492,0 27.8789062,0.682042969 27.8789062,1.5234375 L27.8789062,3.046875 L20.9472656,3.046875 L20.9472656,1.5234375 C20.9472656,0.682042969 20.2652227,0 19.4238281,0 C18.5824336,0 17.9003906,0.682042969 17.9003906,1.5234375 L17.9003906,3.046875 L11.0449219,3.046875 L11.0449219,1.5234375 C11.0449219,0.682042969 10.3628789,0 9.52148437,0 C8.68008984,0 7.99804687,0.682042969 7.99804687,1.5234375 L7.99804687,3.046875 L6.09375,3.046875 C2.73365625,3.046875 0,5.78053125 0,9.140625 L0,32.90625 C0,36.2663437 2.73365625,39 6.09375,39 L17.7480469,39 C18.5894414,39 19.2714844,38.317957 19.2714844,37.4765625 C19.2714844,36.635168 18.5894414,35.953125 17.7480469,35.953125 L6.09375,35.953125 C4.41370312,35.953125 3.046875,34.5862969 3.046875,32.90625 L3.046875,9.140625 C3.046875,7.46057812 4.41370312,6.09375 6.09375,6.09375 L7.99804687,6.09375 L7.99804687,7.6171875 C7.99804687,8.45858203 8.68008984,9.140625 9.52148437,9.140625 C10.3628789,9.140625 11.0449219,8.45858203 11.0449219,7.6171875 L11.0449219,6.09375 L17.9003906,6.09375 L17.9003906,7.6171875 C17.9003906,8.45858203 18.5824336,9.140625 19.4238281,9.140625 C20.2652227,9.140625 20.9472656,8.45858203 20.9472656,7.6171875 L20.9472656,6.09375 L27.8789062,6.09375 L27.8789062,7.6171875 C27.8789062,8.45858203 28.5609492,9.140625 29.4023437,9.140625 C30.2437383,9.140625 30.9257812,8.45858203 30.9257812,7.6171875 L30.9257812,6.09375 L32.90625,6.09375 C34.5862969,6.09375 35.953125,7.46057812 35.953125,9.140625 L35.953125,17.8242187 C35.953125,18.6656133 36.635168,19.3476562 37.4765625,19.3476562 C38.317957,19.3476562 39,18.6656133 39,17.8242187 L39,9.140625 C39,5.78053125 36.2663437,3.046875 32.90625,3.046875 Z" id="Path"></path>
                        <path d="M29.7832031,20.5664062 C24.7010156,20.5664062 20.5664062,24.7010156 20.5664062,29.7832031 C20.5664062,34.8653906 24.7010156,39 29.7832031,39 C34.8653906,39 39,34.8653906 39,29.7832031 C39,24.7010156 34.8653906,20.5664062 29.7832031,20.5664062 Z M29.7832031,35.953125 C26.3811387,35.953125 23.6132812,33.1853438 23.6132812,29.7832031 C23.6132812,26.3810625 26.3811387,23.6132812 29.7832031,23.6132812 C33.1852676,23.6132812 35.953125,26.3810625 35.953125,29.7832031 C35.953125,33.1853438 33.1852676,35.953125 29.7832031,35.953125 Z" id="Shape"></path>
                        <path d="M31.9921875,28.2597656 L31.3066406,28.2597656 L31.3066406,26.6601562 C31.3066406,25.8187617 30.6245977,25.1367188 29.7832031,25.1367188 C28.9418086,25.1367188 28.2597656,25.8187617 28.2597656,26.6601562 L28.2597656,29.7832031 C28.2597656,30.6245977 28.9418086,31.3066406 29.7832031,31.3066406 L31.9921875,31.3066406 C32.833582,31.3066406 33.515625,30.6245977 33.515625,29.7832031 C33.515625,28.9418086 32.833582,28.2597656 31.9921875,28.2597656 Z" id="Path"></path>
                        <circle id="Oval" cx="22.7753906" cy="15.9960937" r="1.5234375"></circle>
                        <circle id="Oval" cx="16.1484375" cy="22.6230469" r="1.5234375"></circle>
                        <circle id="Oval" cx="9.52148437" cy="15.9960937" r="1.5234375"></circle>
                        <circle id="Oval" cx="9.52148437" cy="22.6230469" r="1.5234375"></circle>
                        <circle id="Oval" cx="9.52148437" cy="29.25" r="1.5234375"></circle>
                        <circle id="Oval" cx="16.1484375" cy="29.25" r="1.5234375"></circle>
                        <circle id="Oval" cx="16.1484375" cy="15.9960937" r="1.5234375"></circle>
                    </g>
                </g>
            </g>
        </g>
    </g>
</svg>