<?xml version="1.0" encoding="UTF-8"?>
<svg width="65px" height="65px" viewBox="0 0 65 65" version="1.1" xmlns="http://www.w3.org/2000/svg" xmlns:xlink="http://www.w3.org/1999/xlink">
    <!-- Generator: Sketch 53.2 (72643) - https://sketchapp.com -->
    <title>Group 10</title>
    <desc>Created with Sketch.</desc>
    <g id="Page-1" stroke="none" stroke-width="1" fill="none" fill-rule="evenodd">
        <g id="Landing-page" transform="translate(-972.000000, -2074.000000)" fill="#0491FF">
            <g id="Group-25" transform="translate(190.000000, 2074.000000)">
                <g id="Group-13" transform="translate(782.000000, 0.000000)">
                    <g id="Group-12">
                        <g id="Group-10">
                            <rect id="Rectangle" opacity="0.15" x="0" y="0" width="65" height="65" rx="10"></rect>
                            <g id="value" transform="translate(14.000000, 12.000000)" fill-rule="nonzero">
                                <path d="M20.5,0 L5.06087496,0 C3.70893095,0 2.4380035,0.526451131 1.48238375,1.48238375 C0.526451131,2.4380035 0,3.70893095 0,5.06087496 L0,35.939125 C0,37.2910691 0.526451131,38.5619965 1.48238375,39.5176163 C2.4380035,40.4735489 3.70893095,41 5.06087496,41 L20.5,41 C21.8519439,41 23.1228714,40.4735489 24.0784912,39.5176163 C25.0344238,38.5616836 25.560875,37.2907563 25.560875,35.939125 L25.560875,5.06087496 C25.560875,3.70893095 25.0344238,2.4380035 24.0784912,1.48238375 C23.1228714,0.526451131 21.8519439,2.2759572e-15 20.5,0 Z M23.1585312,35.939125 C23.1585312,36.6491928 22.8820114,37.316719 22.3796463,37.8190842 C21.877594,38.3211365 21.2100678,38.5976562 20.5,38.5976562 L5.06087496,38.5976562 C4.35080717,38.5976562 3.68328096,38.3211365 3.18091581,37.8187714 C2.67886353,37.316719 2.40234375,36.6491928 2.40234375,35.939125 L2.40234375,5.06087496 C2.40234375,4.35080717 2.67886353,3.68328096 3.1812286,3.18091581 C3.68328096,2.67886353 4.35080717,2.40234375 5.06087496,2.40234375 L20.5,2.40234375 C21.2100678,2.40234375 21.877594,2.67886353 22.3799591,3.1812286 C22.8820114,3.68328096 23.1585312,4.35080717 23.1585312,5.06087496 L23.1585312,35.939125 Z" id="Shape"></path>
                                <path d="M19.2134323,5.14627075 L6.34744263,5.14627075 C5.68429565,5.14627075 5.14627075,5.68429565 5.14627075,6.34744263 C5.14627075,7.01090238 5.68429565,7.5486145 6.34744263,7.5486145 L19.2134323,7.5486145 C19.8768921,7.5486145 20.4146042,7.01090238 20.4146042,6.34744263 C20.4146042,5.68429565 19.8768921,5.14627075 19.2134323,5.14627075 Z" id="Path"></path>
                                <path d="M19.2134323,33.4513855 L6.34744263,33.4513855 C5.68429565,33.4513855 5.14627075,33.9890976 5.14627075,34.6525574 C5.14627075,35.3160171 5.68429565,35.8537292 6.34744263,35.8537292 L19.2134323,35.8537292 C19.8768921,35.8537292 20.4146042,35.3160171 20.4146042,34.6525574 C20.4146042,33.9890976 19.8768921,33.4513855 19.2134323,33.4513855 Z" id="Path"></path>
                                <path d="M12.7805938,12.8659897 C8.5711746,12.8659897 5.14627075,16.2905808 5.14627075,20.5 C5.14627075,24.7094192 8.5711746,28.1340103 12.7805938,28.1340103 C16.9900131,28.1340103 20.4146042,24.7094192 20.4146042,20.5 C20.4146042,16.2905808 16.9900131,12.8659897 12.7805938,12.8659897 Z M12.7805938,25.7316665 C9.89559176,25.7316665 7.5486145,23.3846894 7.5486145,20.5 C7.5486145,17.6153106 9.89559176,15.2683335 12.7805938,15.2683335 C15.6652832,15.2683335 18.0122605,17.6153106 18.0122605,20.5 C18.0122605,23.3846894 15.6652832,25.7316665 12.7805938,25.7316665 Z" id="Shape"></path>
                                <path d="M40.6480942,5.49817655 L35.5018234,0.351905803 C35.0329285,-0.117301961 34.2721863,-0.117301961 33.8032913,0.351905803 L28.6567078,5.49817655 C28.1878128,5.96707153 28.1878128,6.72781372 28.6567078,7.19702148 C29.1259155,7.66591646 29.8863449,7.66591646 30.3555527,7.19702148 L33.4513855,4.10118868 L33.4513855,21.7865677 C33.4513855,22.4500274 33.9890976,22.9877395 34.6525574,22.9877395 C35.3157043,22.9877395 35.8537292,22.4500274 35.8537292,21.7865677 L35.8537292,4.10118868 L38.9495621,7.19702148 C39.1838531,7.43131254 39.4913406,7.5486145 39.7988281,7.5486145 C40.1060028,7.5486145 40.4134903,7.43131254 40.6480942,7.19702148 C41.117302,6.72781372 41.117302,5.96738432 40.6480942,5.49817655 L40.6480942,5.49817655 Z" id="Path"></path>
                                <path d="M34.6525574,27.0185471 C33.9890976,27.0185471 33.4513855,27.5562592 33.4513855,28.219719 L33.4513855,30.7928543 C33.4513855,31.4560013 33.9890976,31.9940262 34.6525574,31.9940262 C35.3157043,31.9940262 35.8537292,31.4560013 35.8537292,30.7928543 L35.8537292,28.219719 C35.8537292,27.5562592 35.3160171,27.0185471 34.6525574,27.0185471 Z" id="Path"></path>
                                <path d="M34.6525574,36.0245209 C33.9890976,36.0245209 33.4513855,36.562233 33.4513855,37.2256928 L33.4513855,39.7988281 C33.4513855,40.4622879 33.9890976,41 34.6525574,41 C35.3157043,41 35.8537292,40.4622879 35.8537292,39.7988281 L35.8537292,37.2256928 C35.8537292,36.562233 35.3160171,36.0245209 34.6525574,36.0245209 Z" id="Path"></path>
                            </g>
                        </g>
                    </g>
                </g>
            </g>
        </g>
    </g>
</svg>