<?xml version="1.0" encoding="UTF-8"?>
<svg width="69px" height="69px" viewBox="0 0 69 69" version="1.1" xmlns="http://www.w3.org/2000/svg" xmlns:xlink="http://www.w3.org/1999/xlink">
    <!-- Generator: Sketch 53.2 (72643) - https://sketchapp.com -->
    <title>Group 58</title>
    <desc>Created with Sketch.</desc>
    <g id="Page-1" stroke="none" stroke-width="1" fill="none" fill-rule="evenodd">
        <g id="Landing-page" transform="translate(-1248.000000, -3864.000000)">
            <g id="Group-60" transform="translate(1197.000000, 3759.000000)">
                <g id="Group-58" transform="translate(51.000000, 105.000000)">
                    <rect id="Rectangle" fill="#5D34F3" x="0" y="0" width="69" height="69" rx="15"></rect>
                    <g id="business-and-finance" transform="translate(16.000000, 22.000000)" fill="#FFFFFF" fill-rule="nonzero">
                        <path d="M33.25,0 L4.75,0 C2.13031008,0 0,2.18637087 0,4.875 L0,21.125 C0,23.8136291 2.13031008,26 4.75,26 L33.25,26 C35.8696899,26 38,23.8136291 38,21.125 L38,4.875 C38,2.18637087 35.8696899,0 33.25,0 Z M34.8333333,21.125 C34.8333333,22.0212097 34.12323,22.75 33.25,22.75 L4.75,22.75 C3.87676999,22.75 3.16666667,22.0212097 3.16666667,21.125 L3.16666667,4.875 C3.16666667,3.97879026 3.87676999,3.25 4.75,3.25 L33.25,3.25 C34.12323,3.25 34.8333333,3.97879026 34.8333333,4.875 L34.8333333,21.125 Z" id="Shape"></path>
                        <path d="M19,7.3125 C15.9442749,7.3125 13.4583333,9.86386111 13.4583333,13 C13.4583333,16.1361389 15.9442749,18.6875 19,18.6875 C22.0557251,18.6875 24.5416667,16.1361389 24.5416667,13 C24.5416667,9.86386111 22.0557251,7.3125 19,7.3125 Z M19,15.4375 C17.6907348,15.4375 16.625,14.3437195 16.625,13 C16.625,11.6562805 17.6907348,10.5625 19,10.5625 C20.3092652,10.5625 21.375,11.6562805 21.375,13 C21.375,14.3437195 20.3092652,15.4375 19,15.4375 Z" id="Shape"></path>
                        <path d="M9.5,11.375 L8.70833333,11.375 C7.83433027,11.375 7.125,12.1029969 7.125,13 C7.125,13.8970031 7.83433027,14.625 8.70833333,14.625 L9.5,14.625 C10.3740031,14.625 11.0833333,13.8970031 11.0833333,13 C11.0833333,12.1029969 10.3740031,11.375 9.5,11.375 Z" id="Path"></path>
                        <path d="M29.2916667,11.375 L28.5,11.375 C27.6259969,11.375 26.9166667,12.1029969 26.9166667,13 C26.9166667,13.8970031 27.6259969,14.625 28.5,14.625 L29.2916667,14.625 C30.1656697,14.625 30.875,13.8970031 30.875,13 C30.875,12.1029969 30.1656697,11.375 29.2916667,11.375 Z" id="Path"></path>
                    </g>
                </g>
            </g>
        </g>
    </g>
</svg>