<?xml version="1.0" encoding="UTF-8"?>
<svg width="65px" height="65px" viewBox="0 0 65 65" version="1.1" xmlns="http://www.w3.org/2000/svg" xmlns:xlink="http://www.w3.org/1999/xlink">
    <!-- Generator: Sketch 53.2 (72643) - https://sketchapp.com -->
    <title>Group 29</title>
    <desc>Created with Sketch.</desc>
    <g id="Page-1" stroke="none" stroke-width="1" fill="none" fill-rule="evenodd">
        <g id="Landing-page" transform="translate(-1324.000000, -2413.000000)" fill="#BE22E4">
            <g id="Group-25" transform="translate(190.000000, 2074.000000)">
                <g id="Group-13" transform="translate(782.000000, 0.000000)">
                    <g id="Group-12" transform="translate(352.000000, 339.000000)">
                        <g id="Group-29">
                            <rect id="Rectangle" fill-opacity="0.15" x="0" y="0" width="65" height="65" rx="10"></rect>
                            <g id="shield" transform="translate(13.000000, 10.000000)" fill-rule="nonzero">
                                <path d="M39.9530533,12.5462506 L39.9516198,12.5105232 C39.9311927,12.0695358 39.9175745,11.6029788 39.909332,11.0838816 C39.8709862,8.5524945 37.8121417,6.45859225 35.221832,6.31708396 C29.8211726,6.02250848 25.643277,4.30129142 22.0735378,0.900539131 L22.0430762,0.872167353 C20.8787271,-0.171281045 19.1223481,-0.171281045 17.9576405,0.872167353 L17.9271789,0.900539131 C14.3574398,4.30129142 10.1795441,6.02250848 4.77888477,6.31743421 C2.18893349,6.45859225 0.129730459,8.5524945 0.0913847706,11.0842318 C0.0835005505,11.5998264 0.0695240367,12.0663834 0.0490968807,12.5105232 L0.0469466972,12.5935367 C-0.0580561468,17.9761056 -0.188503486,24.6749818 2.1043578,30.7552845 C3.36510899,34.0989431 5.27451266,37.0054672 7.77917147,39.3946455 C10.6318091,42.1155276 14.3681909,44.2756305 18.8843894,45.8147082 C19.0313217,45.8647966 19.183988,45.9054276 19.3395212,45.9359009 C19.5588446,45.9786337 19.7796015,46 20.0003583,46 C20.2211152,46 20.4422305,45.9786337 20.6611955,45.9359009 C20.8167288,45.9054276 20.9704702,45.8644462 21.1181193,45.8140077 C25.6289421,44.2721278 29.3613818,42.110974 32.2115109,39.3904422 C34.7150946,37.0005635 36.6244983,34.0933388 37.8863246,30.7489797 C40.1877867,24.650463 40.0576978,17.9389772 39.9530533,12.5462506 Z M35.3003154,29.8169165 C32.882024,36.2254204 27.9454559,40.6265382 20.2085723,43.2710617 C20.1809776,43.2801688 20.1515912,43.2882249 20.1211295,43.2941795 C20.0412128,43.3095913 19.9598624,43.3095913 19.8788705,43.2938291 C19.8487672,43.2878746 19.8193807,43.2801688 19.7921445,43.2710617 C12.0470183,40.6314419 7.10722477,36.232776 4.69072532,29.8239217 C2.57740826,24.219283 2.6971044,18.0699774 2.80282394,12.6450262 L2.80354073,12.6149032 C2.82504303,12.1486964 2.83937789,11.6604227 2.84726202,11.1238122 C2.86446385,9.999802 3.78046156,9.06984044 4.93262615,9.00714244 C7.98881881,8.84041486 10.6737385,8.26317315 13.1407683,7.24249206 C15.6045728,6.22321213 17.7927895,4.78641262 19.8297735,2.85013095 C19.9333429,2.76466555 20.0677322,2.7643153 20.1709432,2.85013095 C22.2082855,4.78641262 24.3965023,6.22321213 26.8599484,7.24249206 C29.3269782,8.26317315 32.011898,8.84041486 35.068449,9.00714244 C36.2206136,9.06984044 37.1366112,9.999802 37.1534547,11.1241624 C37.1616972,11.6635752 37.1760321,12.1518488 37.1975344,12.6149032 C37.3028956,18.0461592 37.4197248,24.2003686 35.3003154,29.8169165 Z" id="Shape"></path>
                                <path d="M19.9996417,11.6040296 C13.5446531,11.6040296 8.29343468,16.7368574 8.29343468,23.0455348 C8.29343468,29.3545627 13.5446531,34.4873904 19.9996417,34.4873904 C26.4542717,34.4873904 31.7058486,29.3545627 31.7058486,23.0455348 C31.7058486,16.7368574 26.4542717,11.6040296 19.9996417,11.6040296 Z M19.9996417,31.7931287 C15.0645069,31.7931287 11.0496703,27.8690759 11.0496703,23.0455348 C11.0496703,18.2219938 15.0645069,14.297941 19.9996417,14.297941 C24.934418,14.297941 28.9492546,18.2219938 28.9492546,23.0455348 C28.9492546,27.8690759 24.934418,31.7931287 19.9996417,31.7931287 Z" id="Shape"></path>
                                <path d="M23.3640339,19.4934667 L17.9268206,24.8077333 L16.4510464,23.3653296 C15.9127724,22.839227 15.0401376,22.839227 14.5018635,23.3653296 C13.9639478,23.8914321 13.9639478,24.7443348 14.5018635,25.2700871 L16.9524083,27.6652199 C17.2215453,27.9282712 17.5741829,28.0596217 17.9268206,28.0596217 C18.2794582,28.0596217 18.6320958,27.9282712 18.9012328,27.6652199 L25.3132167,21.3982243 C25.8511325,20.8721217 25.8511325,20.019219 25.3132167,19.4934667 C24.7749427,18.9670139 23.9023079,18.9670139 23.3640339,19.4934667 Z" id="Path"></path>
                            </g>
                        </g>
                    </g>
                </g>
            </g>
        </g>
    </g>
</svg>