<?xml version="1.0" encoding="UTF-8"?>
<svg width="991px" height="797px" viewBox="0 0 991 797" version="1.1" xmlns="http://www.w3.org/2000/svg" xmlns:xlink="http://www.w3.org/1999/xlink">
    <!-- Generator: Sketch 53.2 (72643) - https://sketchapp.com -->
    <title>Group 45</title>
    <desc>Created with Sketch.</desc>
    <defs>
        <path d="M398.5,0 L991,0 L991,797 L398.5,797 C178.414527,797 2.6952697e-14,618.585473 0,398.5 L0,398.5 C-2.6952697e-14,178.414527 178.414527,4.04290455e-14 398.5,0 Z" id="path-1"></path>
        <linearGradient x1="9.56013774%" y1="44.1853836%" x2="103.229597%" y2="74.4277214%" id="linearGradient-3">
            <stop stop-color="#FFFFFF" offset="0%"></stop>
            <stop stop-color="#FFFFFF" offset="100%"></stop>
        </linearGradient>
        <linearGradient x1="9.56013774%" y1="44.6163624%" x2="103.229597%" y2="72.6171413%" id="linearGradient-4">
            <stop stop-color="#FFFFFF" offset="0%"></stop>
            <stop stop-color="#FFFFFF" offset="100%"></stop>
        </linearGradient>
    </defs>
    <g id="Page-1" stroke="none" stroke-width="1" fill="none" fill-rule="evenodd">
        <g id="social-responsibility" transform="translate(-929.000000, -143.000000)">
            <g id="Group-45" transform="translate(929.000000, 143.000000)">
                <mask id="mask-2" fill="white">
                    <use xlink:href="#path-1"></use>
                </mask>
                <use id="Mask" fill="#6038F0" xlink:href="#path-1"></use>
                <path d="M146.685197,612.346908 C146.685197,612.346908 96.2633105,922.860033 645.624599,945.13717 C1194.98589,967.408636 1445.36426,540.507677 1266.15894,423.620762 C1109.19318,321.235537 902.226165,474.311458 681.092486,391.169188 C397.112105,284.405667 145.903254,422.775728 146.685197,612.346908" id="Fill-5" fill="#4E2DC4" mask="url(#mask-2)" transform="translate(734.472321, 649.977338) rotate(24.000000) translate(-734.472321, -649.977338) "></path>
                <g opacity="0.253371466" mask="url(#mask-2)" id="Path-6">
                    <g transform="translate(-1494.000000, -647.000000)">
                        <path d="M585.455321,783.307213 C649.029935,964.941489 759.032553,1041.18305 915.463175,1012.03188 C1150.10911,968.305139 1374.54709,886.061928 1487.51828,1151.5927 C1600.48947,1417.12347 1643.13304,1516.61309 1912.26781,1434.01761 C2181.40258,1351.42213 2477.55547,1135.56927 2521.45532,1365.40186" stroke="url(#linearGradient-3)" transform="translate(1553.455321, 1122.807213) rotate(8.000000) translate(-1553.455321, -1122.807213) "></path>
                        <path d="M659.398965,587.69449 C722.973578,769.328765 832.976196,845.570322 989.406819,816.419159 C1224.05275,772.692415 1448.49073,690.449204 1561.46192,955.979975 C1674.43312,1221.51075 1717.07668,1321.00037 1986.21145,1238.40489 C2255.34623,1155.80941 2551.49911,939.956548 2595.39896,1169.78914" stroke="url(#linearGradient-3)" transform="translate(1627.398965, 927.194490) rotate(8.000000) translate(-1627.398965, -927.194490) "></path>
                        <path d="M815.336794,440.968918 C878.911407,622.603193 988.914025,698.84475 1145.34465,669.693587 C1379.99058,625.966843 1604.42856,543.723633 1717.39975,809.254403 C1830.37094,1074.78517 1873.01451,1174.2748 2142.14928,1091.67932 C2411.28406,1009.08384 2707.43694,793.230976 2751.33679,1023.06357" stroke="url(#linearGradient-3)" transform="translate(1783.336794, 780.468918) rotate(8.000000) translate(-1783.336794, -780.468918) "></path>
                        <path d="M987.579266,250.082746 C1051.15388,431.717021 1161.1565,507.958578 1317.58712,478.807415 C1552.23305,435.080671 1776.67103,352.83746 1889.64222,618.368231 C2002.61342,883.899001 2045.25698,983.388627 2314.39176,900.793147 C2583.52653,818.197667 2879.67941,602.344804 2923.57927,832.177393" stroke="url(#linearGradient-3)" transform="translate(1955.579266, 589.582746) rotate(8.000000) translate(-1955.579266, -589.582746) "></path>
                        <path d="M1110.20661,132 C1173.78122,313.634276 1283.78384,389.875832 1440.21446,360.72467 C1674.8604,316.997926 1899.29838,234.754715 2012.26957,500.285485 C2125.24076,765.816255 2167.88433,865.305881 2437.0191,782.710401 C2706.15387,700.114922 3002.30676,484.262058 3046.20661,714.094647" stroke="url(#linearGradient-3)" transform="translate(2078.206609, 471.500000) rotate(8.000000) translate(-2078.206609, -471.500000) "></path>
                        <path d="M423.286815,988.736947 C486.861429,1170.37122 596.864047,1246.61278 753.294669,1217.46162 C987.940602,1173.73487 1212.37858,1091.49166 1325.34977,1357.02243 C1438.32097,1622.5532 1480.96453,1722.04283 1750.0993,1639.44735 C2019.23408,1556.85187 2315.38696,1340.99901 2359.28681,1570.83159" stroke="url(#linearGradient-3)" transform="translate(1391.286815, 1328.236947) rotate(8.000000) translate(-1391.286815, -1328.236947) "></path>
                        <path d="M356.135875,1186.31415 C419.710488,1367.94843 529.713106,1444.18998 686.143729,1415.03882 C920.789662,1371.31208 1145.22764,1289.06887 1258.19883,1554.59964 C1371.17003,1820.13041 1413.81359,1919.62003 1682.94836,1837.02455 C1952.08314,1754.42907 2248.23602,1538.57621 2292.13587,1768.4088" stroke="url(#linearGradient-3)" transform="translate(1324.135875, 1525.814150) rotate(8.000000) translate(-1324.135875, -1525.814150) "></path>
                        <path d="M294.630187,1360.09911 C360.700498,1541.73338 475.021401,1617.97494 637.592894,1588.82378 C881.450135,1545.09703 1114.6987,1462.85382 1232.10471,1728.38459 C1349.51072,1993.91536 1393.82831,2093.40499 1673.52829,2010.80951 C1953.22827,1928.21403 2261.00699,1712.36116 2306.63019,1942.19375" stroke="url(#linearGradient-4)" transform="translate(1300.630187, 1699.599106) rotate(8.000000) translate(-1300.630187, -1699.599106) "></path>
                        <path d="M202,1478.81053 C265.574614,1660.4448 375.577232,1736.68636 532.007854,1707.5352 C766.653787,1663.80845 991.091767,1581.56524 1104.06296,1847.09601 C1217.03415,2112.62678 1259.67772,2212.11641 1528.81249,2129.52093 C1797.94726,2046.92545 2094.10015,1831.07259 2138,2060.90518" stroke="url(#linearGradient-3)" opacity="0.637532552" transform="translate(1170.000000, 1818.310528) rotate(8.000000) translate(-1170.000000, -1818.310528) "></path>
                    </g>
                </g>
                <g id="Group" mask="url(#mask-2)">
                    <g transform="translate(207.000000, 65.000000)">
                        <path d="M274.085263,329.466124 L401.158958,110.580805 C407.006995,100.506475 403.537618,87.6242859 393.407462,81.8084765 L255.846217,2.82509854 C245.71606,-2.99071086 232.762486,0.460862756 226.914448,10.5338762 L99.8407536,229.419195 C93.9927163,239.493525 97.4634166,252.375714 107.592249,258.191523 L245.154818,337.174901 C255.284974,342.990711 268.237226,339.539137 274.085263,329.466124" id="Fill-4" fill="#FFFFFF"></path>
                        <polyline id="Fill-5" fill="#303438" points="272.807755 332 389 130.481129 215.192245 30 99 231.517549 272.807755 332"></polyline>
                        <path d="M332.478877,66.7355363 L297.561774,44.7381879 C295.148962,43.2189961 292.069634,44.1195125 290.677385,46.7523201 C289.283876,49.3837529 290.109146,52.7438479 292.521958,54.2644146 L327.439061,76.2617629 C329.850613,77.7809548 332.929941,76.8804384 334.32345,74.2490056 C335.715699,71.6161979 334.890429,68.256103 332.478877,66.7355363" id="Fill-6" fill="#464644"></path>
                        <polyline id="Fill-7" fill="#FFFFFF" points="248.6228 233.759564 244.452883 213.503072 233.978807 234.801762 251.440419 267.651369 227.920402 289 241.103018 267.802508 223.647978 234.964728 240.980799 199.71662 195 141 251.51927 199.13178 251.072446 200.039925 256.641974 227.091074 290 240.668561 248.6228 233.759564"></polyline>
                        <polyline id="Fill-8" fill="#FF7466" points="73.813403 428 0 151.246532 9.33609825 135 205.58297 378.796141 209 391.608458 73.813403 428"></polyline>
                        <polyline id="Fill-9" fill="#FFFFFF" points="83.3444232 412 10 137.668722 131.655577 105 205 379.329963 83.3444232 412"></polyline>
                        <polyline id="Fill-10" fill="#FFCD40" points="105.015377 153 101 138.015377 115.984623 134 120 148.984623 105.015377 153"></polyline>
                        <polyline id="Fill-11" fill="#FFCD40" points="113.015377 184 109 169.015104 123.984623 165 128 179.984896 113.015377 184"></polyline>
                        <polyline id="Fill-12" fill="#FFCD40" points="120.015377 215 116 200.015104 130.984623 196 135 210.984896 120.015377 215"></polyline>
                        <polyline id="Fill-13" fill="#FFCD40" points="131.015104 243 127 228.015377 141.984896 224 146 238.984623 131.015104 243"></polyline>
                        <polyline id="Fill-14" fill="#FFCD40" points="138.015377 273 134 258.015377 148.984623 254 153 268.984623 138.015377 273"></polyline>
                        <polyline id="Fill-15" fill="#FFCD40" points="143.015377 306 139 291.015377 153.984623 287 158 301.985915 143.015377 306"></polyline>
                        <polyline id="Fill-16" fill="#FFCD40" points="152.015377 337 148 322.015377 162.984623 318 167 332.985915 152.015377 337"></polyline>
                        <polyline id="Fill-17" fill="#FFCD40" points="162.015377 367 158 352.015377 172.984623 348 177 362.984623 162.015377 367"></polyline>
                        <polyline id="Fill-18" fill="#FFCD40" points="70.0156505 160 66 145.015377 80.9843495 141 85 155.984623 70.0156505 160"></polyline>
                        <polyline id="Fill-19" fill="#FFCD40" points="81.0153773 192 77 177.015377 91.9846227 173 96 187.984623 81.0153773 192"></polyline>
                        <polyline id="Fill-20" fill="#FFCD40" points="89.0140845 220 85 205.015377 99.9846227 201 104 215.984623 89.0140845 220"></polyline>
                        <polyline id="Fill-21" fill="#FFCD40" points="96.0151041 253 92 238.015377 106.984896 234 111 248.985915 96.0151041 253"></polyline>
                        <polyline id="Fill-22" fill="#FFCD40" points="105.015377 286 101 271.015377 115.984623 267 120 281.984623 105.015377 286"></polyline>
                        <polyline id="Fill-23" fill="#FFCD40" points="115.015651 313 111 298.015377 125.985642 294 130 308.984623 115.015651 313"></polyline>
                        <polyline id="Fill-24" fill="#FFCD40" points="122.014358 346 118 331.015377 132.984349 327 137 341.984623 122.014358 346"></polyline>
                        <polyline id="Fill-25" fill="#FFCD40" points="131.015377 375 127 360.015377 141.984623 356 146 370.984623 131.015377 375"></polyline>
                        <polyline id="Fill-26" fill="#FFCD40" points="44.0153773 170 40 155.014358 54.9846227 151 59 165.985642 44.0153773 170"></polyline>
                        <polyline id="Fill-27" fill="#FFCD40" points="53.0153773 199 49 184.015651 63.9846227 180 68 194.985642 53.0153773 199"></polyline>
                        <polyline id="Fill-28" fill="#FFCD40" points="85.700129 324 57 217.092518 72.3011911 213 101 319.907482 85.700129 324"></polyline>
                        <polyline id="Fill-29" fill="#FFCD40" points="92.0153773 351 88 336.015377 102.984623 332 107 346.984623 92.0153773 351"></polyline>
                        <polyline id="Fill-30" fill="#FFCD40" points="99.0153773 382 95 367.015377 109.984623 363 114 377.984623 99.0153773 382"></polyline>
                        <path d="M352.30044,783 L103.69956,783 C84.43812,783 68.40672,768.240726 66.85968,749.083306 L30,293 L426,293 L389.14032,749.083306 C387.59196,768.240726 371.56056,783 352.30044,783" id="Fill-42" fill="#F2BC24"></path>
                        <path d="M200,293 L200,783 L351.287256,783 C370.289488,783 386.106233,768.240726 387.63386,749.081989 L424,293 L200,293" id="Fill-43" fill="#F2BC24"></path>
                        <polyline id="Fill-44" fill="#FFCD40" points="103 293 356 293 323.057292 783 135.942708 783 103 293"></polyline>
                        <polygon id="Fill-45" fill="#F2BC24" points="7 293 448 293 448 250 7 250"></polygon>
                        <polyline id="Fill-46" fill="#FFCD40" points="425.1486 302 426 293 30 293 30.8514 302 425.1486 302"></polyline>
                        <path d="M229,364.345297 L226.487273,360.373664 C222.688737,354.37015 215.909143,349.00128 208.571476,349 C201.232407,349.00128 194.395323,352.603132 190.727191,358.401921 L170,391.160222 L201.967155,408 L229,364.345297" id="Fill-47" fill="#303438"></path>
                        <path d="M225.240955,358.161625 L252.969759,404.980799 L247.605916,408 L274.535739,408 L288,385.265927 L282.636157,388.283859 L264.810033,358.185727 C261.455354,352.520286 255.200139,349 248.488179,349 L217,349 C219.959092,351.109635 222.828397,354.086972 225.240955,358.161625" id="Fill-48" fill="#303438"></path>
                        <path d="M168.140437,471.468868 L165.723198,475.478137 C162.070362,481.537249 160.427395,489.656536 163.957481,495.510276 C167.487567,501.364016 174.06483,505 181.123653,505 L221,505 L221,471 L168.140437,471.468868" id="Fill-49" fill="#303438"></path>
                        <path d="M198,425.459566 L183.653567,401 L154.959315,401 L160.674594,404.24699 L141.681897,436.630904 C138.106034,442.726347 138.106034,450.301292 141.681897,456.398099 L158.458918,485 C158.879037,481.178406 160.16851,476.970558 162.739138,472.585279 L192.284721,422.212576 L198,425.459566" id="Fill-50" fill="#303438"></path>
                        <path d="M315.418633,439.194851 L295.980217,407 L266,423.551388 L292.180908,466 L296.895523,466 C304.018076,466 311.978345,463.373055 315.419948,457.674006 C318.860236,451.973699 318.860236,444.8939 315.418633,439.194851" id="Fill-51" fill="#303438"></path>
                        <path d="M236.93178,472.975896 L236.93178,467 L223,489.5 L236.93178,512 L236.93178,506.024104 L273.820633,506.024104 C280.764306,506.024104 287.235373,502.540258 290.70923,496.933462 L307,470.623201 C303.530183,472.051892 299.309044,472.975896 294.315039,472.975896 L236.93178,472.975896" id="Fill-52" fill="#303438"></path>
                        <polyline id="Fill-53" fill="#303438" points="90 641 123 641 123 630.285906 102.100871 630.285906 102.100871 608.320673 118.710179 608.320673 118.710179 597.606578 102.100871 597.606578 102.100871 576.714094 123 576.714094 123 566 90 566 90 641"></polyline>
                        <polygon id="Fill-54" fill="#303438" points="128 607 148 607 148 598 128 598"></polygon>
                        <polyline id="Fill-55" fill="#303438" points="195.064187 625.570365 188.97615 566 177.241458 566 171.374804 625.14314 164.844 566 153 566 161.633944 641 178.348374 641 182.777421 601.035089 187.203701 641 203.366056 641 212 566 201.373608 566 195.064187 625.570365"></polyline>
                        <path d="M223.921626,617.213371 L229.429239,579.285477 L234.935554,617.213371 L223.921626,617.213371 Z M221.637285,566 L210,641 L220.494464,641 L222.468426,627.3931 L236.493945,627.3931 L238.467907,641 L250,641 L238.364014,566 L221.637285,566 L221.637285,566 Z" id="Fill-56" fill="#303438"></path>
                        <path d="M267.714264,580.175291 C267.714264,574.798383 269.787356,572.755159 273.415266,572.755159 C277.043177,572.755159 279.116268,574.798383 279.116268,580.175291 L279.116268,583.293897 L289.896345,583.293897 L289.896345,580.928058 C289.896345,568.882441 284.195343,562 273.104302,562 C262.011966,562 256.310964,568.882441 256.310964,580.928058 C256.310964,602.435687 278.597996,605.339217 278.597996,620.826054 C278.597996,626.202961 276.317595,628.137303 272.689684,628.137303 C269.061774,628.137303 266.781373,626.202961 266.781373,620.826054 L266.781373,615.447802 L256,615.447802 L256,620.071942 C256,632.116215 261.805953,639 273.000648,639 C284.195343,639 290,632.116215 290,620.071942 C290,598.564313 267.714264,595.660783 267.714264,580.175291" id="Fill-57" fill="#303438"></path>
                        <polyline id="Fill-58" fill="#303438" points="293 576.714094 304.500827 576.714094 304.500827 641 315.500423 641 315.500423 576.714094 327 576.714094 327 566 293 566 293 576.714094"></polyline>
                        <polyline id="Fill-59" fill="#303438" points="367 576.714094 367 566 334 566 334 641 367 641 367 630.285906 346.1 630.285906 346.1 608.320673 362.71 608.320673 362.71 597.606578 346.1 597.606578 346.1 576.714094 367 576.714094"></polyline>
                    </g>
                </g>
            </g>
        </g>
    </g>
</svg>